<?xml version="1.0" encoding="UTF-8"?>
<!DOCTYPE svg PUBLIC "-//W3C//DTD SVG 1.1//EN" "http://www.w3.org/Graphics/SVG/1.1/DTD/svg11.dtd">
<svg xmlns="http://www.w3.org/2000/svg" version="1.1" width="1326px" height="1325px" style="shape-rendering:geometricPrecision; text-rendering:geometricPrecision; image-rendering:optimizeQuality; fill-rule:evenodd; clip-rule:evenodd" xmlns:xlink="http://www.w3.org/1999/xlink">
<g><path style="opacity:0.986" fill="#000000" d="M 309.5,-0.5 C 496.5,-0.5 683.5,-0.5 870.5,-0.5C 931.326,60.1593 991.993,120.993 1052.5,182C 1053.9,183.438 1055.57,184.271 1057.5,184.5C 1057.73,186.433 1058.56,188.1 1060,189.5C 1062.17,191 1064,192.833 1065.5,195C 1066.9,196.438 1068.57,197.271 1070.5,197.5C 1072.5,201.118 1075,204.452 1078,207.5C 1080.83,209.494 1083.33,211.828 1085.5,214.5C 1086.32,215.386 1087.32,215.719 1088.5,215.5C 1088.28,216.675 1088.61,217.675 1089.5,218.5C 1092.5,221.5 1095.5,224.5 1098.5,227.5C 1099.32,228.386 1100.32,228.719 1101.5,228.5C 1101.83,231.5 1103.5,233.167 1106.5,233.5C 1106.5,234.5 1106.5,235.5 1106.5,236.5C 1107.5,236.5 1108.5,236.5 1109.5,236.5C 1109.83,239.5 1111.5,241.167 1114.5,241.5C 1114.83,244.5 1116.5,246.167 1119.5,246.5C 1121.17,250.167 1123.83,252.833 1127.5,254.5C 1127.83,257.5 1129.5,259.167 1132.5,259.5C 1134.17,262.167 1135.83,264.833 1137.5,267.5C 1140.17,269.167 1142.83,270.833 1145.5,272.5C 1147.17,275.167 1148.83,277.833 1150.5,280.5C 1151.68,280.281 1152.68,280.614 1153.5,281.5C 1156.35,284.628 1159.35,287.628 1162.5,290.5C 1163.39,291.325 1163.72,292.325 1163.5,293.5C 1166.5,293.833 1168.17,295.5 1168.5,298.5C 1169.68,298.281 1170.68,298.614 1171.5,299.5C 1182.31,310.728 1193.31,321.728 1204.5,332.5C 1205.67,620.166 1205.83,907.833 1205,1195.5C 1204.58,1196.67 1203.91,1197.67 1203,1198.5C 1202.83,1203.53 1202.33,1208.53 1201.5,1213.5C 1199.99,1219.53 1198.33,1225.53 1196.5,1231.5C 1194.95,1234.94 1193.28,1238.44 1191.5,1242C 1191.83,1242.33 1192.17,1242.67 1192.5,1243C 1188.37,1247.33 1185.7,1252.49 1184.5,1258.5C 1183.5,1258.5 1182.5,1258.5 1181.5,1258.5C 1181.76,1259.98 1181.43,1261.31 1180.5,1262.5C 1174.8,1272.2 1167.46,1280.2 1158.5,1286.5C 1158.5,1287.5 1158.5,1288.5 1158.5,1289.5C 1156.57,1289.73 1154.9,1290.56 1153.5,1292C 1148.28,1296.57 1143.11,1301.07 1138,1305.5C 1137.59,1305.04 1137.09,1304.71 1136.5,1304.5C 1128.38,1309.31 1120.21,1313.98 1112,1318.5C 1111.59,1318.04 1111.09,1317.71 1110.5,1317.5C 1106.79,1319.6 1102.79,1320.76 1098.5,1321C 1098.04,1321.41 1097.71,1321.91 1097.5,1322.5C 1093.69,1323.17 1090.02,1323.83 1086.5,1324.5C 827.5,1324.5 568.5,1324.5 309.5,1324.5C 305.979,1323.83 302.313,1323.17 298.5,1322.5C 294.604,1321.22 290.771,1319.55 287,1317.5C 286.439,1318.02 285.772,1318.36 285,1318.5C 279.238,1314.29 272.738,1311.62 265.5,1310.5C 265.5,1309.5 265.5,1308.5 265.5,1307.5C 261.424,1305.96 257.424,1304.13 253.5,1302C 236.57,1289.26 222.57,1274.42 211.5,1257.5C 208.709,1252.79 206.709,1247.79 205.5,1242.5C 204.5,1242.5 203.5,1242.5 202.5,1242.5C 199.221,1232.07 196.221,1221.4 193.5,1210.5C 192.668,1202.52 192.168,1194.52 192,1186.5C 191.667,1185.5 191.333,1184.5 191,1183.5C 190.667,1183.83 190.333,1184.17 190,1184.5C 189.333,1165.17 189.333,1145.83 190,1126.5C 191.119,1125.45 191.619,1124.28 191.5,1123C 189.248,1121.89 186.748,1121.72 184,1122.5C 177.148,1122.02 170.315,1121.35 163.5,1120.5C 157.501,1118.67 151.834,1116 146.5,1112.5C 143.93,1109.89 141.097,1107.56 138,1105.5C 135.045,1101.21 131.878,1097.21 128.5,1093.5C 126.712,1089.79 125.045,1086.12 123.5,1082.5C 123.024,1078.28 122.024,1074.28 120.5,1070.5C 119.333,951.168 119.167,831.835 120,712.5C 120.667,711.833 121.333,711.167 122,710.5C 123.37,703.064 125.37,695.731 128,688.5C 128.333,688.833 128.667,689.167 129,689.5C 131.224,685.753 133.724,682.086 136.5,678.5C 137.524,677.147 138.857,676.48 140.5,676.5C 140.5,675.5 140.5,674.5 140.5,673.5C 144.399,670.914 148.399,668.414 152.5,666C 165.193,661.266 178.526,659.266 192.5,660C 191.975,659.308 191.308,658.808 190.5,658.5C 189.333,485.501 189.167,312.501 190,139.5C 190.333,139.833 190.667,140.167 191,140.5C 191.333,139.5 191.667,138.5 192,137.5C 192.168,129.479 192.668,121.479 193.5,113.5C 196.221,102.597 199.221,91.9304 202.5,81.5C 203.5,81.5 204.5,81.5 205.5,81.5C 206.709,76.2092 208.709,71.2092 211.5,66.5C 222.57,49.5764 236.57,34.7431 253.5,22C 257.424,19.8693 261.424,18.0359 265.5,16.5C 265.5,15.5 265.5,14.5 265.5,13.5C 272.738,12.3777 279.238,9.71105 285,5.5C 285.772,5.6448 286.439,5.97814 287,6.5C 290.771,4.44844 294.604,2.78177 298.5,1.5C 302.313,0.832925 305.979,0.166258 309.5,-0.5 Z"/></g>
<g><path style="opacity:0.004" fill="#000000" d="M 879.5,4.5 C 880.833,5.16667 880.833,5.16667 879.5,4.5 Z"/></g>
<g><path style="opacity:0.004" fill="#000000" d="M 881.5,7.5 C 882.833,8.16667 882.833,8.16667 881.5,7.5 Z"/></g>
<g><path style="opacity:0.004" fill="#000000" d="M 884.5,9.5 C 885.833,10.1667 885.833,10.1667 884.5,9.5 Z"/></g>
<g><path style="opacity:0.004" fill="#000000" d="M 886.5,12.5 C 887.833,13.1667 887.833,13.1667 886.5,12.5 Z"/></g>
<g><path style="opacity:0.004" fill="#000000" d="M 889.5,14.5 C 890.833,15.1667 890.833,15.1667 889.5,14.5 Z"/></g>
<g><path style="opacity:0.004" fill="#000000" d="M 892.5,17.5 C 893.833,18.1667 893.833,18.1667 892.5,17.5 Z"/></g>
<g><path style="opacity:0.004" fill="#000000" d="M 894.5,20.5 C 895.833,21.1667 895.833,21.1667 894.5,20.5 Z"/></g>
<g><path style="opacity:0.004" fill="#000000" d="M 897.5,22.5 C 898.833,23.1667 898.833,23.1667 897.5,22.5 Z"/></g>
<g><path style="opacity:0.004" fill="#000000" d="M 899.5,25.5 C 900.833,26.1667 900.833,26.1667 899.5,25.5 Z"/></g>
<g><path style="opacity:0.004" fill="#000000" d="M 902.5,27.5 C 903.833,28.1667 903.833,28.1667 902.5,27.5 Z"/></g>
<g><path style="opacity:0.004" fill="#000000" d="M 237.5,30.5 C 238.833,31.1667 238.833,31.1667 237.5,30.5 Z"/></g>
<g><path style="opacity:0.004" fill="#000000" d="M 905.5,30.5 C 906.833,31.1667 906.833,31.1667 905.5,30.5 Z"/></g>
<g><path style="opacity:0.004" fill="#000000" d="M 907.5,32.5 C 908.525,32.8966 908.692,33.5632 908,34.5C 907.536,33.9056 907.369,33.2389 907.5,32.5 Z"/></g>
<g><path style="opacity:0.004" fill="#000000" d="M 232.5,35.5 C 233.833,36.1667 233.833,36.1667 232.5,35.5 Z"/></g>
<g><path style="opacity:0.004" fill="#000000" d="M 910.5,35.5 C 911.833,36.1667 911.833,36.1667 910.5,35.5 Z"/></g>
<g><path style="opacity:0.004" fill="#000000" d="M 229.5,38.5 C 230.833,39.1667 230.833,39.1667 229.5,38.5 Z"/></g>
<g><path style="opacity:0.004" fill="#000000" d="M 912.5,38.5 C 913.833,39.1667 913.833,39.1667 912.5,38.5 Z"/></g>
<g><path style="opacity:0.004" fill="#000000" d="M 227.5,40.5 C 228.833,41.1667 228.833,41.1667 227.5,40.5 Z"/></g>
<g><path style="opacity:0.004" fill="#000000" d="M 915.5,40.5 C 916.833,41.1667 916.833,41.1667 915.5,40.5 Z"/></g>
<g><path style="opacity:0.004" fill="#000000" d="M 224.5,43.5 C 225.833,44.1667 225.833,44.1667 224.5,43.5 Z"/></g>
<g><path style="opacity:0.004" fill="#000000" d="M 917.5,44.5 C 917.897,43.475 918.563,43.3083 919.5,44C 918.906,44.4643 918.239,44.631 917.5,44.5 Z"/></g>
<g><path style="opacity:0.004" fill="#000000" d="M 920.5,45.5 C 921.525,45.8966 921.692,46.5632 921,47.5C 920.536,46.9056 920.369,46.2389 920.5,45.5 Z"/></g>
<g><path style="opacity:0.004" fill="#000000" d="M 923.5,48.5 C 924.833,49.1667 924.833,49.1667 923.5,48.5 Z"/></g>
<g><path style="opacity:0.004" fill="#000000" d="M 925.5,51.5 C 926.833,52.1667 926.833,52.1667 925.5,51.5 Z"/></g>
<g><path style="opacity:0.004" fill="#000000" d="M 928.5,53.5 C 929.833,54.1667 929.833,54.1667 928.5,53.5 Z"/></g>
<g><path style="opacity:0.004" fill="#000000" d="M 930.5,57.5 C 930.897,56.475 931.563,56.3083 932.5,57C 931.906,57.4643 931.239,57.631 930.5,57.5 Z"/></g>
<g><path style="opacity:0.004" fill="#000000" d="M 933.5,58.5 C 934.833,59.1667 934.833,59.1667 933.5,58.5 Z"/></g>
<g><path style="opacity:0.004" fill="#000000" d="M 936.5,61.5 C 937.833,62.1667 937.833,62.1667 936.5,61.5 Z"/></g>
<g><path style="opacity:0.004" fill="#000000" d="M 938.5,64.5 C 939.833,65.1667 939.833,65.1667 938.5,64.5 Z"/></g>
<g><path style="opacity:0.004" fill="#000000" d="M 941.5,66.5 C 942.833,67.1667 942.833,67.1667 941.5,66.5 Z"/></g>
<g><path style="opacity:0.004" fill="#000000" d="M 946.5,71.5 C 947.833,72.1667 947.833,72.1667 946.5,71.5 Z"/></g>
<g><path style="opacity:0.004" fill="#000000" d="M 949.5,74.5 C 950.833,75.1667 950.833,75.1667 949.5,74.5 Z"/></g>
<g><path style="opacity:0.004" fill="#000000" d="M 954.5,79.5 C 955.833,80.1667 955.833,80.1667 954.5,79.5 Z"/></g>
<g><path style="opacity:0.004" fill="#000000" d="M 956.5,82.5 C 957.833,83.1667 957.833,83.1667 956.5,82.5 Z"/></g>
<g><path style="opacity:1" fill="#111111" d="M 835.5,85.5 C 834.833,85.5 834.167,85.5 833.5,85.5C 665.334,84.3338 497,84.1672 328.5,85C 327.263,85.2321 326.263,85.7321 325.5,86.5C 324.833,86.5 324.167,86.5 323.5,86.5C 324.347,85.0337 325.68,84.2004 327.5,84C 412.167,83.8333 496.833,83.6667 581.5,83.5C 666.503,83.5 751.169,84.1667 835.5,85.5 Z"/></g>
<g><path style="opacity:1" fill="#575757" d="M 833.5,85.5 C 764.167,85.5 694.833,85.5 625.5,85.5C 525.478,85.1758 425.478,85.5091 325.5,86.5C 326.263,85.7321 327.263,85.2321 328.5,85C 497,84.1672 665.334,84.3338 833.5,85.5 Z"/></g>
<g><path style="opacity:0.004" fill="#000000" d="M 959.5,84.5 C 960.833,85.1667 960.833,85.1667 959.5,84.5 Z"/></g>
<g><path style="opacity:1" fill="#999999" d="M 625.5,85.5 C 625.5,85.8333 625.5,86.1667 625.5,86.5C 622.5,86.5 619.5,86.5 616.5,86.5C 518.488,86.1854 420.488,86.5187 322.5,87.5C 322.5,87.1667 322.5,86.8333 322.5,86.5C 322.833,86.5 323.167,86.5 323.5,86.5C 324.167,86.5 324.833,86.5 325.5,86.5C 425.478,85.5091 525.478,85.1758 625.5,85.5 Z"/></g>
<g><path style="opacity:1" fill="#b2b2b2" d="M 625.5,86.5 C 625.5,86.1667 625.5,85.8333 625.5,85.5C 694.833,85.5 764.167,85.5 833.5,85.5C 833.5,86.1667 833.5,86.8333 833.5,87.5C 833.167,87.5 832.833,87.5 832.5,87.5C 763.669,86.5008 694.669,86.1675 625.5,86.5 Z"/></g>
<g><path style="opacity:1" fill="#323232" d="M 322.5,86.5 C 322.5,86.8333 322.5,87.1667 322.5,87.5C 319.549,87.2872 316.882,87.9539 314.5,89.5C 316.391,86.8283 319.058,85.8283 322.5,86.5 Z"/></g>
<g><path style="opacity:1" fill="#c6c6c6" d="M 616.5,86.5 C 521.5,87.1667 426.5,87.8333 331.5,88.5C 325.692,88.2665 320.026,88.9332 314.5,90.5C 314.5,90.1667 314.5,89.8333 314.5,89.5C 316.882,87.9539 319.549,87.2872 322.5,87.5C 420.488,86.5187 518.488,86.1854 616.5,86.5 Z"/></g>
<g><path style="opacity:1" fill="#ebebeb" d="M 616.5,86.5 C 619.5,86.5 622.5,86.5 625.5,86.5C 694.669,86.1675 763.669,86.5008 832.5,87.5C 665.54,88.4972 498.54,88.8306 331.5,88.5C 426.5,87.8333 521.5,87.1667 616.5,86.5 Z"/></g>
<g><path style="opacity:1" fill="#fefefe" d="M 832.5,87.5 C 832.333,149.501 832.5,211.501 833,273.5C 833.698,276.004 834.531,278.337 835.5,280.5C 835.5,283.833 835.5,287.167 835.5,290.5C 836.546,294.084 837.379,297.75 838,301.5C 839.615,304.583 841.115,307.583 842.5,310.5C 843.167,311.167 843.833,311.833 844.5,312.5C 844.427,314.027 845.094,315.027 846.5,315.5C 846.5,315.833 846.5,316.167 846.5,316.5C 847.273,319.516 848.939,321.85 851.5,323.5C 851.5,323.833 851.5,324.167 851.5,324.5C 851.738,326.404 852.738,327.738 854.5,328.5C 855.45,332.413 857.783,335.08 861.5,336.5C 861.328,337.492 861.662,338.158 862.5,338.5C 862.5,340.5 863.5,341.5 865.5,341.5C 867.573,343.58 869.907,345.246 872.5,346.5C 872.5,348.5 873.5,349.5 875.5,349.5C 876.605,350.6 877.938,351.267 879.5,351.5C 880.401,353.727 882.067,354.727 884.5,354.5C 884.694,356.912 886.027,357.912 888.5,357.5C 888.5,358.5 888.5,359.5 888.5,360.5C 890.903,360.448 893.236,360.781 895.5,361.5C 896.167,361.5 896.833,361.5 897.5,361.5C 898.167,361.5 898.833,361.5 899.5,361.5C 899.5,362.167 899.833,362.5 900.5,362.5C 902.845,365.075 905.845,366.075 909.5,365.5C 909.833,366.167 910.167,366.833 910.5,367.5C 915.826,368.048 921.159,368.882 926.5,370C 987.5,370.667 1048.5,370.667 1109.5,370C 1110.06,369.617 1110.39,369.117 1110.5,368.5C 1112.5,454.827 1113.16,541.494 1112.5,628.5C 1112.33,746.834 1112.5,865.167 1113,983.5C 1113.17,1009.34 1113.67,1035 1114.5,1060.5C 1114.67,1103.17 1114.5,1145.83 1114,1188.5C 1112.8,1190.68 1112.3,1193.01 1112.5,1195.5C 1112.5,1197.5 1112.5,1199.5 1112.5,1201.5C 1111.09,1201.97 1110.43,1202.97 1110.5,1204.5C 1110.5,1205.5 1110.5,1206.5 1110.5,1207.5C 1107.92,1208.05 1106.92,1209.71 1107.5,1212.5C 1106.5,1212.41 1105.67,1212.75 1105,1213.5C 1101.29,1219.03 1097.13,1224.03 1092.5,1228.5C 1092.17,1228.5 1091.83,1228.5 1091.5,1228.5C 1087.64,1229.28 1084.31,1230.95 1081.5,1233.5C 1077.89,1234.7 1074.22,1235.7 1070.5,1236.5C 824.833,1236.67 579.166,1236.5 333.5,1236C 327.294,1235.9 321.294,1235.07 315.5,1233.5C 313.315,1233.3 311.315,1232.63 309.5,1231.5C 309.167,1231.5 308.833,1231.5 308.5,1231.5C 306.733,1229.11 304.4,1227.44 301.5,1226.5C 300.5,1225.83 299.5,1225.17 298.5,1224.5C 296.5,1222.17 294.5,1219.83 292.5,1217.5C 290.463,1212.99 288.13,1208.66 285.5,1204.5C 285.666,1201 284.666,1198 282.5,1195.5C 282.5,1170.83 282.5,1146.17 282.5,1121.5C 507.667,1121.83 732.667,1121.5 957.5,1120.5C 959.167,1120.5 960.833,1120.5 962.5,1120.5C 965.85,1120.67 969.183,1120.5 972.5,1120C 973.571,1119.15 974.571,1118.31 975.5,1117.5C 980.023,1116.71 984.357,1115.21 988.5,1113C 989.252,1112.33 989.586,1111.5 989.5,1110.5C 995.494,1106.51 1000.49,1101.51 1004.5,1095.5C 1009.71,1090.39 1012.38,1084.06 1012.5,1076.5C 1014.13,1074.97 1014.96,1072.97 1015,1070.5C 1015.67,949.5 1015.67,828.5 1015,707.5C 1013.77,704.7 1013.1,701.7 1013,698.5C 1012.33,697.748 1011.5,697.414 1010.5,697.5C 1010.66,696.127 1010.49,694.793 1010,693.5C 1008.25,691.379 1006.42,689.379 1004.5,687.5C 1003.83,686.5 1003.17,685.5 1002.5,684.5C 999.431,677.765 994.431,673.098 987.5,670.5C 986.07,669.463 984.403,668.796 982.5,668.5C 982.158,667.662 981.492,667.328 980.5,667.5C 979.07,666.463 977.403,665.796 975.5,665.5C 973.614,664.935 971.947,663.935 970.5,662.5C 741.168,661.5 511.834,661.167 282.5,661.5C 281.501,486.903 281.168,312.236 281.5,137.5C 282.162,133.534 282.495,129.534 282.5,125.5C 283.865,119.482 286.532,114.148 290.5,109.5C 292.86,108.135 294.527,106.135 295.5,103.5C 298.126,101.177 300.793,98.8432 303.5,96.5C 306.437,95.5282 309.103,94.1948 311.5,92.5C 312.5,91.8333 313.5,91.1667 314.5,90.5C 320.026,88.9332 325.692,88.2665 331.5,88.5C 498.54,88.8306 665.54,88.4972 832.5,87.5 Z"/></g>
<g><path style="opacity:0.004" fill="#000000" d="M 962.5,87.5 C 963.833,88.1667 963.833,88.1667 962.5,87.5 Z"/></g>
<g><path style="opacity:1" fill="#dcdcdc" d="M 832.5,87.5 C 832.833,87.5 833.167,87.5 833.5,87.5C 832.837,149.509 833.504,211.176 835.5,272.5C 835.5,273.5 835.5,274.5 835.5,275.5C 835.5,277.167 835.5,278.833 835.5,280.5C 834.531,278.337 833.698,276.004 833,273.5C 832.5,211.501 832.333,149.501 832.5,87.5 Z"/></g>
<g><path style="opacity:1" fill="#939393" d="M 833.5,85.5 C 834.167,85.5 834.833,85.5 835.5,85.5C 835.5,147.833 835.5,210.167 835.5,272.5C 833.504,211.176 832.837,149.509 833.5,87.5C 833.5,86.8333 833.5,86.1667 833.5,85.5 Z"/></g>
<g><path style="opacity:1" fill="#757575" d="M 314.5,89.5 C 314.5,89.8333 314.5,90.1667 314.5,90.5C 313.5,91.1667 312.5,91.8333 311.5,92.5C 308.892,92.4003 306.558,93.0669 304.5,94.5C 304.953,93.5416 305.619,92.7083 306.5,92C 309.102,90.8604 311.769,90.0271 314.5,89.5 Z"/></g>
<g><path style="opacity:0.004" fill="#000000" d="M 967.5,92.5 C 968.833,93.1667 968.833,93.1667 967.5,92.5 Z"/></g>
<g><path style="opacity:1" fill="#bbbbbb" d="M 311.5,92.5 C 309.103,94.1948 306.437,95.5282 303.5,96.5C 303.833,95.8333 304.167,95.1667 304.5,94.5C 306.558,93.0669 308.892,92.4003 311.5,92.5 Z"/></g>
<g><path style="opacity:0.004" fill="#000000" d="M 972.5,97.5 C 973.833,98.1667 973.833,98.1667 972.5,97.5 Z"/></g>
<g><path style="opacity:1" fill="#6b6b6b" d="M 304.5,94.5 C 304.167,95.1667 303.833,95.8333 303.5,96.5C 300.793,98.8432 298.126,101.177 295.5,103.5C 294.167,104.5 292.833,105.5 291.5,106.5C 292.543,103.944 294.21,101.777 296.5,100C 299.065,97.9205 301.732,96.0872 304.5,94.5 Z"/></g>
<g><path style="opacity:1" fill="#c7c7c7" d="M 295.5,103.5 C 294.527,106.135 292.86,108.135 290.5,109.5C 290.833,108.833 291.167,108.167 291.5,107.5C 291.5,107.167 291.5,106.833 291.5,106.5C 292.833,105.5 294.167,104.5 295.5,103.5 Z"/></g>
<g><path style="opacity:0.004" fill="#000000" d="M 980.5,105.5 C 981.833,106.167 981.833,106.167 980.5,105.5 Z"/></g>
<g><path style="opacity:1" fill="#5f5f5f" d="M 291.5,107.5 C 291.167,108.167 290.833,108.833 290.5,109.5C 286.532,114.148 283.865,119.482 282.5,125.5C 282.167,125.5 281.833,125.5 281.5,125.5C 281.737,122.353 282.57,119.353 284,116.5C 285.849,113.966 287.515,111.3 289,108.5C 289.671,107.748 290.504,107.414 291.5,107.5 Z"/></g>
<g><path style="opacity:0.004" fill="#000000" d="M 985.5,110.5 C 986.833,111.167 986.833,111.167 985.5,110.5 Z"/></g>
<g><path style="opacity:1" fill="#494949" d="M 281.5,127.5 C 281.108,129.179 280.608,130.846 280,132.5C 279.5,308.833 279.333,485.166 279.5,661.5C 278.334,484.334 278.167,307 279,129.5C 279.708,128.619 280.542,127.953 281.5,127.5 Z"/></g>
<g><path style="opacity:1" fill="#9e9e9e" d="M 281.5,125.5 C 281.833,125.5 282.167,125.5 282.5,125.5C 282.495,129.534 282.162,133.534 281.5,137.5C 280.5,311.999 280.167,486.666 280.5,661.5C 280.167,661.5 279.833,661.5 279.5,661.5C 279.333,485.166 279.5,308.833 280,132.5C 280.608,130.846 281.108,129.179 281.5,127.5C 281.5,126.833 281.5,126.167 281.5,125.5 Z"/></g>
<g><path style="opacity:1" fill="#d3d3d3" d="M 281.5,137.5 C 281.168,312.236 281.501,486.903 282.5,661.5C 281.833,661.5 281.167,661.5 280.5,661.5C 280.167,486.666 280.5,311.999 281.5,137.5 Z"/></g>
<g><path style="opacity:1" fill="#5d5d5d" d="M 835.5,275.5 C 836.808,282.377 838.141,289.377 839.5,296.5C 838.589,294.249 837.256,292.249 835.5,290.5C 835.5,287.167 835.5,283.833 835.5,280.5C 835.5,278.833 835.5,277.167 835.5,275.5 Z"/></g>
<g><path style="opacity:1" fill="#313131" d="M 839.5,297.5 C 842.075,299.845 843.075,302.845 842.5,306.5C 842.167,306.5 841.833,306.5 841.5,306.5C 841.244,303.402 840.578,300.402 839.5,297.5 Z"/></g>
<g><path style="opacity:1" fill="#c6c6c6" d="M 835.5,290.5 C 837.256,292.249 838.589,294.249 839.5,296.5C 839.5,296.833 839.5,297.167 839.5,297.5C 840.578,300.402 841.244,303.402 841.5,306.5C 841.833,307.833 842.167,309.167 842.5,310.5C 841.115,307.583 839.615,304.583 838,301.5C 837.379,297.75 836.546,294.084 835.5,290.5 Z"/></g>
<g><path style="opacity:1" fill="#6e6e6e" d="M 841.5,306.5 C 841.833,306.5 842.167,306.5 842.5,306.5C 844.074,308.102 844.741,310.102 844.5,312.5C 843.833,311.833 843.167,311.167 842.5,310.5C 842.167,309.167 841.833,307.833 841.5,306.5 Z"/></g>
<g><path style="opacity:1" fill="#8e8e8e" d="M 844.5,312.5 C 845.906,312.973 846.573,313.973 846.5,315.5C 845.094,315.027 844.427,314.027 844.5,312.5 Z"/></g>
<g><path style="opacity:1" fill="#818181" d="M 846.5,316.5 C 848.9,318.296 850.567,320.63 851.5,323.5C 848.939,321.85 847.273,319.516 846.5,316.5 Z"/></g>
<g><path style="opacity:1" fill="#7d7d7d" d="M 851.5,324.5 C 853.262,325.262 854.262,326.596 854.5,328.5C 852.738,327.738 851.738,326.404 851.5,324.5 Z"/></g>
<g><path style="opacity:1" fill="#949494" d="M 854.5,328.5 C 856.832,331.109 859.165,333.775 861.5,336.5C 857.783,335.08 855.45,332.413 854.5,328.5 Z"/></g>
<g><path style="opacity:1" fill="#484848" d="M 861.5,336.5 C 863.773,336.957 865.106,338.29 865.5,340.5C 864.5,339.833 863.5,339.167 862.5,338.5C 861.662,338.158 861.328,337.492 861.5,336.5 Z"/></g>
<g><path style="opacity:1" fill="#b4b4b4" d="M 862.5,338.5 C 863.5,339.167 864.5,339.833 865.5,340.5C 865.5,340.833 865.5,341.167 865.5,341.5C 863.5,341.5 862.5,340.5 862.5,338.5 Z"/></g>
<g><path style="opacity:1" fill="#616161" d="M 865.5,341.5 C 865.5,341.167 865.5,340.833 865.5,340.5C 868.427,341.757 870.761,343.757 872.5,346.5C 869.907,345.246 867.573,343.58 865.5,341.5 Z"/></g>
<g><path style="opacity:1" fill="#959595" d="M 872.5,346.5 C 873.833,347.167 874.833,348.167 875.5,349.5C 873.5,349.5 872.5,348.5 872.5,346.5 Z"/></g>
<g><path style="opacity:1" fill="#5e5e5e" d="M 879.5,351.5 C 881.544,352.508 883.544,353.508 885.5,354.5C 885.167,354.5 884.833,354.5 884.5,354.5C 882.067,354.727 880.401,353.727 879.5,351.5 Z"/></g>
<g><path style="opacity:1" fill="#414141" d="M 885.5,354.5 C 887.027,354.427 888.027,355.094 888.5,356.5C 886.973,356.573 885.973,355.906 885.5,354.5 Z"/></g>
<g><path style="opacity:1" fill="#4c4c4c" d="M 889.5,356.5 C 892.671,357.436 895.338,359.103 897.5,361.5C 896.833,361.5 896.167,361.5 895.5,361.5C 893.249,360.182 891.249,358.516 889.5,356.5 Z"/></g>
<g><path style="opacity:1" fill="#c5c5c5" d="M 884.5,354.5 C 884.833,354.5 885.167,354.5 885.5,354.5C 885.973,355.906 886.973,356.573 888.5,356.5C 888.833,356.5 889.167,356.5 889.5,356.5C 891.249,358.516 893.249,360.182 895.5,361.5C 893.236,360.781 890.903,360.448 888.5,360.5C 888.5,359.5 888.5,358.5 888.5,357.5C 886.027,357.912 884.694,356.912 884.5,354.5 Z"/></g>
<g><path style="opacity:1" fill="#494949" d="M 899.5,361.5 C 903.416,361.025 906.749,362.025 909.5,364.5C 906.402,364.244 903.402,363.578 900.5,362.5C 899.833,362.5 899.5,362.167 899.5,361.5 Z"/></g>
<g><path style="opacity:1" fill="#c6c6c6" d="M 900.5,362.5 C 903.402,363.578 906.402,364.244 909.5,364.5C 909.5,364.833 909.5,365.167 909.5,365.5C 905.845,366.075 902.845,365.075 900.5,362.5 Z"/></g>
<g><path style="opacity:1" fill="#b3b3b3" d="M 909.5,365.5 C 912.01,365.927 914.343,366.593 916.5,367.5C 914.5,367.5 912.5,367.5 910.5,367.5C 910.167,366.833 909.833,366.167 909.5,365.5 Z"/></g>
<g><path style="opacity:1" fill="#666666" d="M 909.5,365.5 C 909.5,365.167 909.5,364.833 909.5,364.5C 912.839,364.89 916.173,365.39 919.5,366C 984.166,366.5 1048.83,366.667 1113.5,366.5C 1113.5,366.833 1113.5,367.167 1113.5,367.5C 1051.5,367.5 989.5,367.5 927.5,367.5C 923.833,367.5 920.167,367.5 916.5,367.5C 914.343,366.593 912.01,365.927 909.5,365.5 Z"/></g>
<g><path style="opacity:1" fill="#acacac" d="M 927.5,367.5 C 989.5,367.5 1051.5,367.5 1113.5,367.5C 1114.17,367.5 1114.5,367.833 1114.5,368.5C 1115.22,583.166 1115.56,797.833 1115.5,1012.5C 1115.17,1012.5 1114.83,1012.5 1114.5,1012.5C 1114.21,884.333 1113.54,756.333 1112.5,628.5C 1113.16,541.494 1112.5,454.827 1110.5,368.5C 1067,368.615 1023.5,368.949 980,369.5C 962.154,369.5 944.654,368.833 927.5,367.5 Z"/></g>
<g><path style="opacity:1" fill="#ececec" d="M 910.5,367.5 C 912.5,367.5 914.5,367.5 916.5,367.5C 920.167,367.5 923.833,367.5 927.5,367.5C 944.654,368.833 962.154,369.5 980,369.5C 1023.5,368.949 1067,368.615 1110.5,368.5C 1110.39,369.117 1110.06,369.617 1109.5,370C 1048.5,370.667 987.5,370.667 926.5,370C 921.159,368.882 915.826,368.048 910.5,367.5 Z"/></g>
<g><path style="opacity:1" fill="#191919" d="M 1113.5,367.5 C 1113.5,367.167 1113.5,366.833 1113.5,366.5C 1114.5,366.414 1115.33,366.748 1116,367.5C 1116.5,423.499 1116.67,479.499 1116.5,535.5C 1115.83,479.833 1115.17,424.167 1114.5,368.5C 1114.5,367.833 1114.17,367.5 1113.5,367.5 Z"/></g>
<g><path style="opacity:1" fill="#3b3b3b" d="M 1114.5,368.5 C 1115.17,424.167 1115.83,479.833 1116.5,535.5C 1116.5,754.833 1116.5,974.167 1116.5,1193.5C 1116.17,1193.5 1115.83,1193.5 1115.5,1193.5C 1115.5,1192.5 1115.5,1191.5 1115.5,1190.5C 1115.5,1131.17 1115.5,1071.83 1115.5,1012.5C 1115.56,797.833 1115.22,583.166 1114.5,368.5 Z"/></g>
<g><path style="opacity:1" fill="#7f7f7f" d="M 279.5,661.5 C 279.833,661.5 280.167,661.5 280.5,661.5C 281.167,661.5 281.833,661.5 282.5,661.5C 511.834,661.167 741.168,661.5 970.5,662.5C 971.947,663.935 973.614,664.935 975.5,665.5C 973.265,665.795 971.265,665.461 969.5,664.5C 969.082,663.778 968.416,663.278 967.5,663C 964.854,662.503 962.187,662.336 959.5,662.5C 732.666,662.833 505.999,662.5 279.5,661.5 Z"/></g>
<g><path style="opacity:1" fill="#3f3f3f" d="M 959.5,662.5 C 962.187,662.336 964.854,662.503 967.5,663C 968.416,663.278 969.082,663.778 969.5,664.5C 965.84,664.841 962.507,664.175 959.5,662.5 Z"/></g>
<g><path style="opacity:1" fill="#545454" d="M 975.5,665.5 C 977.403,665.796 979.07,666.463 980.5,667.5C 978.302,667.88 976.635,667.213 975.5,665.5 Z"/></g>
<g><path style="opacity:1" fill="#5e5e5e" d="M 982.5,668.5 C 984.403,668.796 986.07,669.463 987.5,670.5C 987.833,671.167 988.167,671.833 988.5,672.5C 986.264,671.454 984.264,670.121 982.5,668.5 Z"/></g>
<g><path style="opacity:1" fill="#555555" d="M 988.5,672.5 C 990.179,672.285 991.179,672.952 991.5,674.5C 990.29,674.068 989.29,673.401 988.5,672.5 Z"/></g>
<g><path style="opacity:1" fill="#acacac" d="M 987.5,670.5 C 994.431,673.098 999.431,677.765 1002.5,684.5C 999.833,682.5 997.5,680.167 995.5,677.5C 995.167,676.5 994.5,675.833 993.5,675.5C 992.508,675.672 991.842,675.338 991.5,674.5C 991.179,672.952 990.179,672.285 988.5,672.5C 988.167,671.833 987.833,671.167 987.5,670.5 Z"/></g>
<g><path style="opacity:1" fill="#555555" d="M 993.5,675.5 C 994.5,675.833 995.167,676.5 995.5,677.5C 994.167,677.5 993.5,676.833 993.5,675.5 Z"/></g>
<g><path style="opacity:1" fill="#404040" d="M 1007.5,693.5 C 1009.08,696.3 1010.41,699.3 1011.5,702.5C 1010.54,702.047 1009.71,701.381 1009,700.5C 1008.56,698.134 1008.06,695.801 1007.5,693.5 Z"/></g>
<g><path style="opacity:1" fill="#9a9a9a" d="M 1004.5,687.5 C 1006.42,689.379 1008.25,691.379 1010,693.5C 1010.49,694.793 1010.66,696.127 1010.5,697.5C 1012.08,699.142 1012.75,701.142 1012.5,703.5C 1012.17,703.5 1011.83,703.5 1011.5,703.5C 1011.5,703.167 1011.5,702.833 1011.5,702.5C 1010.41,699.3 1009.08,696.3 1007.5,693.5C 1006.51,691.544 1005.51,689.544 1004.5,687.5 Z"/></g>
<g><path style="opacity:1" fill="#bababa" d="M 1010.5,697.5 C 1011.5,697.414 1012.33,697.748 1013,698.5C 1013.1,701.7 1013.77,704.7 1015,707.5C 1015.67,828.5 1015.67,949.5 1015,1070.5C 1014.96,1072.97 1014.13,1074.97 1012.5,1076.5C 1012.5,1075.83 1012.5,1075.17 1012.5,1074.5C 1013.31,1072.71 1013.81,1070.71 1014,1068.5C 1014.67,949.167 1014.67,829.833 1014,710.5C 1013.02,708.26 1012.52,705.927 1012.5,703.5C 1012.75,701.142 1012.08,699.142 1010.5,697.5 Z"/></g>
<g><path style="opacity:1" fill="#161616" d="M 1011.5,711.5 C 1012.29,712.609 1012.79,713.942 1013,715.5C 1013.82,835.177 1013.65,954.843 1012.5,1074.5C 1012.5,1075.17 1012.5,1075.83 1012.5,1076.5C 1012.17,1076.5 1011.83,1076.5 1011.5,1076.5C 1011.5,954.833 1011.5,833.167 1011.5,711.5 Z"/></g>
<g><path style="opacity:1" fill="#5e5e5e" d="M 1011.5,703.5 C 1011.83,703.5 1012.17,703.5 1012.5,703.5C 1012.52,705.927 1013.02,708.26 1014,710.5C 1014.67,829.833 1014.67,949.167 1014,1068.5C 1013.81,1070.71 1013.31,1072.71 1012.5,1074.5C 1013.65,954.843 1013.82,835.177 1013,715.5C 1012.79,713.942 1012.29,712.609 1011.5,711.5C 1011.5,708.833 1011.5,706.167 1011.5,703.5 Z"/></g>
<g><path style="opacity:1" fill="#141414" d="M 300.5,775.5 C 323.663,774.337 346.996,774.17 370.5,775C 371.056,775.383 371.389,775.883 371.5,776.5C 356.882,775.533 342.215,775.2 327.5,775.5C 318.5,775.5 309.5,775.5 300.5,775.5 Z"/></g>
<g><path style="opacity:1" fill="#131313" d="M 582.5,775.5 C 578.833,775.5 575.167,775.5 571.5,775.5C 559.167,775.5 546.833,775.5 534.5,775.5C 526.16,775.334 517.827,775.5 509.5,776C 508.944,776.383 508.611,776.883 508.5,777.5C 507.167,777.5 505.833,777.5 504.5,777.5C 505.808,776.768 507.142,775.934 508.5,775C 533.337,774.17 558.003,774.337 582.5,775.5 Z"/></g>
<g><path style="opacity:1" fill="#454545" d="M 300.5,775.5 C 309.5,775.5 318.5,775.5 327.5,775.5C 327.5,775.833 327.5,776.167 327.5,776.5C 323.833,776.5 320.167,776.5 316.5,776.5C 309.798,776.336 303.131,776.669 296.5,777.5C 297.671,776.655 299.005,775.989 300.5,775.5 Z"/></g>
<g><path style="opacity:1" fill="#5e5e5e" d="M 327.5,776.5 C 327.5,776.167 327.5,775.833 327.5,775.5C 342.215,775.2 356.882,775.533 371.5,776.5C 373.626,777.048 375.626,777.715 377.5,778.5C 364.207,777.105 350.874,776.438 337.5,776.5C 334.167,776.5 330.833,776.5 327.5,776.5 Z"/></g>
<g><path style="opacity:1" fill="#505050" d="M 534.5,775.5 C 534.5,775.833 534.5,776.167 534.5,776.5C 525.818,776.521 517.152,776.854 508.5,777.5C 508.611,776.883 508.944,776.383 509.5,776C 517.827,775.5 526.16,775.334 534.5,775.5 Z"/></g>
<g><path style="opacity:1" fill="#737373" d="M 316.5,776.5 C 311.833,777.167 307.167,777.833 302.5,778.5C 299.833,778.5 297.167,778.5 294.5,778.5C 294.5,778.167 294.5,777.833 294.5,777.5C 295.167,777.5 295.833,777.5 296.5,777.5C 303.131,776.669 309.798,776.336 316.5,776.5 Z"/></g>
<g><path style="opacity:1" fill="#cbcbcb" d="M 337.5,777.5 C 337.5,777.167 337.5,776.833 337.5,776.5C 350.874,776.438 364.207,777.105 377.5,778.5C 379.5,779.5 381.5,780.5 383.5,781.5C 369.982,779.779 356.315,778.446 342.5,777.5C 340.833,777.5 339.167,777.5 337.5,777.5 Z"/></g>
<g><path style="opacity:1" fill="#6d6d6d" d="M 534.5,776.5 C 534.5,776.167 534.5,775.833 534.5,775.5C 546.833,775.5 559.167,775.5 571.5,775.5C 574.833,776.167 578.167,776.833 581.5,777.5C 566.509,776.834 551.509,776.5 536.5,776.5C 535.833,776.5 535.167,776.5 534.5,776.5 Z"/></g>
<g><path style="opacity:1" fill="#2e2e2e" d="M 871.5,777.5 C 822.664,777.168 773.997,777.501 725.5,778.5C 725.167,778.5 724.833,778.5 724.5,778.5C 748.657,777.167 773.157,776.5 798,776.5C 822.669,776.5 847.169,776.833 871.5,777.5 Z"/></g>
<g><path style="opacity:1" fill="#b2b2b2" d="M 316.5,776.5 C 320.167,776.5 323.833,776.5 327.5,776.5C 330.833,776.5 334.167,776.5 337.5,776.5C 337.5,776.833 337.5,777.167 337.5,777.5C 325.839,778 314.173,778.333 302.5,778.5C 307.167,777.833 311.833,777.167 316.5,776.5 Z"/></g>
<g><path style="opacity:1" fill="#fefefe" d="M 342.5,777.5 C 356.315,778.446 369.982,779.779 383.5,781.5C 385.5,781.5 387.5,781.5 389.5,781.5C 389.833,781.5 390.167,781.5 390.5,781.5C 391.183,783.176 392.517,783.843 394.5,783.5C 400.673,785.582 406.673,788.249 412.5,791.5C 414.122,793.641 416.122,795.308 418.5,796.5C 419.5,799.5 421.5,801.5 424.5,802.5C 425.49,804.79 427.157,806.456 429.5,807.5C 430.975,811.981 433.309,815.981 436.5,819.5C 437.733,824.332 438.567,829.332 439,834.5C 439.934,835.858 440.768,837.192 441.5,838.5C 441.666,848.172 441.5,857.839 441,867.5C 438.184,874.807 435.684,882.14 433.5,889.5C 432.032,890.779 431.365,892.446 431.5,894.5C 427.916,898.683 424.582,903.016 421.5,907.5C 420.5,908.167 419.5,908.833 418.5,909.5C 415.312,910.028 412.979,911.695 411.5,914.5C 408.674,914.998 406.34,916.331 404.5,918.5C 403.18,919.942 401.514,920.608 399.5,920.5C 396.565,921.623 393.565,922.623 390.5,923.5C 390.137,924.183 389.804,924.85 389.5,925.5C 388.833,925.5 388.167,925.5 387.5,925.5C 381.357,926.999 375.024,927.666 368.5,927.5C 368.5,928.5 368.5,929.5 368.5,930.5C 353.99,930.171 339.657,930.504 325.5,931.5C 324.502,959.328 324.169,987.328 324.5,1015.5C 307.5,1015.5 290.5,1015.5 273.5,1015.5C 273.5,937.833 273.5,860.167 273.5,782.5C 278.214,782.827 282.88,782.493 287.5,781.5C 287.863,780.817 288.196,780.15 288.5,779.5C 289.5,779.5 290.5,779.5 291.5,779.5C 306.837,779.667 322.17,779.5 337.5,779C 339.382,778.802 341.048,778.302 342.5,777.5 Z"/></g>
<g><path style="opacity:1" fill="#363636" d="M 503.5,777.5 C 501.052,778.473 498.385,778.806 495.5,778.5C 491.466,778.505 487.466,778.838 483.5,779.5C 484.263,778.732 485.263,778.232 486.5,778C 492.157,777.501 497.824,777.334 503.5,777.5 Z"/></g>
<g><path style="opacity:1" fill="#9d9d9d" d="M 534.5,776.5 C 535.167,776.5 535.833,776.5 536.5,776.5C 530.833,777.167 525.167,777.833 519.5,778.5C 511.486,778.568 503.486,778.901 495.5,779.5C 495.5,779.167 495.5,778.833 495.5,778.5C 498.385,778.806 501.052,778.473 503.5,777.5C 503.833,777.5 504.167,777.5 504.5,777.5C 505.833,777.5 507.167,777.5 508.5,777.5C 517.152,776.854 525.818,776.521 534.5,776.5 Z"/></g>
<g><path style="opacity:1" fill="#fefefe" d="M 595.5,781.5 C 599.198,781.552 602.865,781.886 606.5,782.5C 607.568,783.434 608.901,783.768 610.5,783.5C 613.294,784.921 616.294,785.921 619.5,786.5C 619.833,786.5 620.167,786.5 620.5,786.5C 620.953,787.458 621.619,788.292 622.5,789C 625.753,789.201 628.753,790.034 631.5,791.5C 631.833,791.5 632.167,791.5 632.5,791.5C 633.687,793.975 635.687,794.975 638.5,794.5C 638.5,795.5 638.5,796.5 638.5,797.5C 639.5,797.5 640.5,797.5 641.5,797.5C 641.414,798.496 641.748,799.329 642.5,800C 644.854,800.847 647.188,801.68 649.5,802.5C 651.573,804.58 653.907,806.246 656.5,807.5C 656.5,809.5 657.5,810.5 659.5,810.5C 659.833,813.5 661.5,815.167 664.5,815.5C 664.455,818.077 665.455,820.077 667.5,821.5C 668.5,821.833 669.167,822.5 669.5,823.5C 670.97,826.616 672.97,829.283 675.5,831.5C 675.328,832.492 675.662,833.158 676.5,833.5C 676.557,834.609 676.89,835.609 677.5,836.5C 677.62,839.578 678.62,842.245 680.5,844.5C 681.347,849.815 683.014,854.815 685.5,859.5C 685.5,859.833 685.5,860.167 685.5,860.5C 686.598,864.911 687.598,869.245 688.5,873.5C 688.5,885.5 688.5,897.5 688.5,909.5C 688.5,910.5 688.5,911.5 688.5,912.5C 686.978,917.273 685.978,922.273 685.5,927.5C 684.542,927.953 683.708,928.619 683,929.5C 682.502,932.482 682.335,935.482 682.5,938.5C 681.094,938.973 680.427,939.973 680.5,941.5C 680.5,942.833 680.5,944.167 680.5,945.5C 679.504,945.414 678.671,945.748 678,946.5C 677.605,949.652 676.772,952.652 675.5,955.5C 674.471,957.517 673.471,959.517 672.5,961.5C 671.094,961.973 670.427,962.973 670.5,964.5C 668.738,965.262 667.738,966.596 667.5,968.5C 667.5,968.833 667.5,969.167 667.5,969.5C 663.786,971.893 661.119,975.226 659.5,979.5C 655.012,983.144 650.345,986.644 645.5,990C 644.748,990.671 644.414,991.504 644.5,992.5C 643.5,992.833 642.833,993.5 642.5,994.5C 639.683,995.095 637.35,996.428 635.5,998.5C 631.813,999.577 628.48,1001.24 625.5,1003.5C 624.833,1003.5 624.167,1003.5 623.5,1003.5C 617.573,1005.48 611.573,1006.82 605.5,1007.5C 605.5,1008.5 605.5,1009.5 605.5,1010.5C 600.739,1010.12 596.405,1011.12 592.5,1013.5C 587.404,1013.04 582.738,1014.04 578.5,1016.5C 576.833,1016.5 575.167,1016.5 573.5,1016.5C 564.938,1016.16 556.605,1016.82 548.5,1018.5C 538.167,1018.5 527.833,1018.5 517.5,1018.5C 505.082,1016.2 492.415,1015.2 479.5,1015.5C 479.5,937.5 479.5,859.5 479.5,781.5C 483.846,781.666 488.179,781.499 492.5,781C 493.416,780.722 494.082,780.222 494.5,779.5C 494.833,779.5 495.167,779.5 495.5,779.5C 503.486,778.901 511.486,778.568 519.5,778.5C 545.053,776.712 570.386,777.712 595.5,781.5 Z"/></g>
<g><path style="opacity:1" fill="#c0c0c0" d="M 536.5,776.5 C 551.509,776.5 566.509,776.834 581.5,777.5C 584.096,778.265 586.763,778.599 589.5,778.5C 591.5,779.5 593.5,780.5 595.5,781.5C 570.386,777.712 545.053,776.712 519.5,778.5C 525.167,777.833 530.833,777.167 536.5,776.5 Z"/></g>
<g><path style="opacity:1" fill="#3b3b3b" d="M 571.5,775.5 C 575.167,775.5 578.833,775.5 582.5,775.5C 585.353,776.954 588.353,777.954 591.5,778.5C 590.833,778.5 590.167,778.5 589.5,778.5C 586.763,778.599 584.096,778.265 581.5,777.5C 578.167,776.833 574.833,776.167 571.5,775.5 Z"/></g>
<g><path style="opacity:1" fill="#727272" d="M 725.5,778.5 C 773.997,777.501 822.664,777.168 871.5,777.5C 872.833,792.5 872.833,807.5 871.5,822.5C 871.829,807.99 871.496,793.657 870.5,779.5C 822.336,778.501 774.003,778.168 725.5,778.5 Z"/></g>
<g><path style="opacity:1" fill="#e5e5e5" d="M 337.5,777.5 C 339.167,777.5 340.833,777.5 342.5,777.5C 341.048,778.302 339.382,778.802 337.5,779C 322.17,779.5 306.837,779.667 291.5,779.5C 291.5,779.167 291.5,778.833 291.5,778.5C 292.5,778.5 293.5,778.5 294.5,778.5C 297.167,778.5 299.833,778.5 302.5,778.5C 314.173,778.333 325.839,778 337.5,777.5 Z"/></g>
<g><path style="opacity:1" fill="#7e7e7e" d="M 377.5,778.5 C 378.833,778.5 380.167,778.5 381.5,778.5C 383.515,779.924 385.848,780.59 388.5,780.5C 389.167,780.5 389.5,780.833 389.5,781.5C 387.5,781.5 385.5,781.5 383.5,781.5C 381.5,780.5 379.5,779.5 377.5,778.5 Z"/></g>
<g><path style="opacity:1" fill="#363636" d="M 381.5,778.5 C 384.152,778.41 386.485,779.076 388.5,780.5C 385.848,780.59 383.515,779.924 381.5,778.5 Z"/></g>
<g><path style="opacity:1" fill="#898989" d="M 589.5,778.5 C 590.167,778.5 590.833,778.5 591.5,778.5C 592.167,778.5 592.833,778.5 593.5,778.5C 595.515,779.924 597.848,780.59 600.5,780.5C 601.5,780.5 602.5,780.5 603.5,780.5C 604.5,781.167 605.5,781.833 606.5,782.5C 602.865,781.886 599.198,781.552 595.5,781.5C 593.5,780.5 591.5,779.5 589.5,778.5 Z"/></g>
<g><path style="opacity:1" fill="#3d3d3d" d="M 593.5,778.5 C 596.152,778.41 598.485,779.076 600.5,780.5C 597.848,780.59 595.515,779.924 593.5,778.5 Z"/></g>
<g><path style="opacity:1" fill="#2d2d2d" d="M 279.5,778.5 C 278.5,779.167 277.5,779.833 276.5,780.5C 275.167,780.5 273.833,780.5 272.5,780.5C 274.515,779.076 276.848,778.41 279.5,778.5 Z"/></g>
<g><path style="opacity:1" fill="#484848" d="M 294.5,777.5 C 294.5,777.833 294.5,778.167 294.5,778.5C 293.5,778.5 292.5,778.5 291.5,778.5C 287.511,778.116 283.845,778.783 280.5,780.5C 280.167,780.5 279.833,780.5 279.5,780.5C 278.5,780.5 277.5,780.5 276.5,780.5C 277.5,779.833 278.5,779.167 279.5,778.5C 284.305,777.513 289.305,777.179 294.5,777.5 Z"/></g>
<g><path style="opacity:1" fill="#898989" d="M 291.5,778.5 C 291.5,778.833 291.5,779.167 291.5,779.5C 290.5,779.5 289.5,779.5 288.5,779.5C 285.833,779.833 283.167,780.167 280.5,780.5C 283.845,778.783 287.511,778.116 291.5,778.5 Z"/></g>
<g><path style="opacity:1" fill="#6f6f6f" d="M 495.5,778.5 C 495.5,778.833 495.5,779.167 495.5,779.5C 495.167,779.5 494.833,779.5 494.5,779.5C 490.534,780.162 486.534,780.495 482.5,780.5C 482.5,779.833 482.833,779.5 483.5,779.5C 487.466,778.838 491.466,778.505 495.5,778.5 Z"/></g>
<g><path style="opacity:1" fill="#fefefe" d="M 869.5,779.5 C 869.5,793.167 869.5,806.833 869.5,820.5C 838.815,819.841 808.482,820.508 778.5,822.5C 778.5,840.833 778.5,859.167 778.5,877.5C 806.833,877.5 835.167,877.5 863.5,877.5C 863.5,891.5 863.5,905.5 863.5,919.5C 835.167,919.5 806.833,919.5 778.5,919.5C 778.5,951.5 778.5,983.5 778.5,1015.5C 761.5,1015.5 744.5,1015.5 727.5,1015.5C 727.5,936.833 727.5,858.167 727.5,779.5C 774.833,779.5 822.167,779.5 869.5,779.5 Z"/></g>
<g><path style="opacity:1" fill="#b6b6b6" d="M 494.5,779.5 C 494.082,780.222 493.416,780.722 492.5,781C 488.179,781.499 483.846,781.666 479.5,781.5C 479.5,781.167 479.5,780.833 479.5,780.5C 480.5,780.5 481.5,780.5 482.5,780.5C 486.534,780.495 490.534,780.162 494.5,779.5 Z"/></g>
<g><path style="opacity:1" fill="#5a5a5a" d="M 603.5,780.5 C 605.527,780.338 607.527,780.505 609.5,781C 610.252,781.671 610.586,782.504 610.5,783.5C 608.901,783.768 607.568,783.434 606.5,782.5C 605.5,781.833 604.5,781.167 603.5,780.5 Z"/></g>
<g><path style="opacity:1" fill="#707070" d="M 724.5,778.5 C 724.833,778.5 725.167,778.5 725.5,778.5C 725.5,857.833 725.5,937.167 725.5,1016.5C 743.167,1016.5 760.833,1016.5 778.5,1016.5C 760.674,1017.5 742.674,1017.83 724.5,1017.5C 724.5,937.833 724.5,858.167 724.5,778.5 Z"/></g>
<g><path style="opacity:1" fill="#c8c8c8" d="M 725.5,778.5 C 774.003,778.168 822.336,778.501 870.5,779.5C 870.167,779.5 869.833,779.5 869.5,779.5C 822.167,779.5 774.833,779.5 727.5,779.5C 727.5,858.167 727.5,936.833 727.5,1015.5C 744.5,1015.5 761.5,1015.5 778.5,1015.5C 778.5,1015.83 778.5,1016.17 778.5,1016.5C 760.833,1016.5 743.167,1016.5 725.5,1016.5C 725.5,937.167 725.5,857.833 725.5,778.5 Z"/></g>
<g><path style="opacity:1" fill="#939393" d="M 390.5,781.5 C 392.153,781.66 393.486,782.326 394.5,783.5C 392.517,783.843 391.183,783.176 390.5,781.5 Z"/></g>
<g><path style="opacity:1" fill="#1b1b1b" d="M 477.5,781.5 C 477.167,859.668 477.501,937.668 478.5,1015.5C 482.167,1016.17 485.833,1016.83 489.5,1017.5C 489.167,1017.5 488.833,1017.5 488.5,1017.5C 484.563,1017.79 480.73,1017.46 477,1016.5C 476.168,937.999 476.334,859.666 477.5,781.5 Z"/></g>
<g><path style="opacity:1" fill="#747474" d="M 394.5,783.5 C 401.644,783.774 407.644,786.44 412.5,791.5C 406.673,788.249 400.673,785.582 394.5,783.5 Z"/></g>
<g><path style="opacity:1" fill="#575757" d="M 479.5,780.5 C 479.5,780.833 479.5,781.167 479.5,781.5C 478.501,859.332 478.167,937.332 478.5,1015.5C 477.501,937.668 477.167,859.668 477.5,781.5C 477.842,780.662 478.508,780.328 479.5,780.5 Z"/></g>
<g><path style="opacity:1" fill="#909090" d="M 272.5,780.5 C 273.833,780.5 275.167,780.5 276.5,780.5C 277.5,780.5 278.5,780.5 279.5,780.5C 277.393,781.468 275.059,781.802 272.5,781.5C 272.5,859.5 272.5,937.5 272.5,1015.5C 289.992,1016.5 307.659,1016.83 325.5,1016.5C 307.674,1017.5 289.674,1017.83 271.5,1017.5C 271.167,938.332 271.501,859.332 272.5,780.5 Z"/></g>
<g><path style="opacity:1" fill="#dcdcdc" d="M 288.5,779.5 C 288.196,780.15 287.863,780.817 287.5,781.5C 282.88,782.493 278.214,782.827 273.5,782.5C 273.5,860.167 273.5,937.833 273.5,1015.5C 273.167,1015.5 272.833,1015.5 272.5,1015.5C 272.5,937.5 272.5,859.5 272.5,781.5C 275.059,781.802 277.393,781.468 279.5,780.5C 279.833,780.5 280.167,780.5 280.5,780.5C 283.167,780.167 285.833,779.833 288.5,779.5 Z"/></g>
<g><path style="opacity:1" fill="#797979" d="M 610.5,783.5 C 613.754,783.207 616.754,783.874 619.5,785.5C 619.5,785.833 619.5,786.167 619.5,786.5C 616.294,785.921 613.294,784.921 610.5,783.5 Z"/></g>
<g><path style="opacity:1" fill="#424242" d="M 619.5,786.5 C 619.5,786.167 619.5,785.833 619.5,785.5C 622.578,785.62 625.245,786.62 627.5,788.5C 624.892,788.6 622.558,787.933 620.5,786.5C 620.167,786.5 619.833,786.5 619.5,786.5 Z"/></g>
<g><path style="opacity:1" fill="#989898" d="M 620.5,786.5 C 622.558,787.933 624.892,788.6 627.5,788.5C 628.791,788.263 629.791,788.596 630.5,789.5C 630.833,790.167 631.167,790.833 631.5,791.5C 628.753,790.034 625.753,789.201 622.5,789C 621.619,788.292 620.953,787.458 620.5,786.5 Z"/></g>
<g><path style="opacity:1" fill="#333333" d="M 630.5,789.5 C 633.546,789.725 635.879,791.058 637.5,793.5C 635.833,792.833 634.167,792.167 632.5,791.5C 632.167,791.5 631.833,791.5 631.5,791.5C 631.167,790.833 630.833,790.167 630.5,789.5 Z"/></g>
<g><path style="opacity:1" fill="#888888" d="M 632.5,791.5 C 634.167,792.167 635.833,792.833 637.5,793.5C 638.167,793.5 638.5,793.833 638.5,794.5C 635.687,794.975 633.687,793.975 632.5,791.5 Z"/></g>
<g><path style="opacity:1" fill="#626262" d="M 412.5,791.5 C 418.102,792.96 422.102,796.294 424.5,801.5C 422.5,799.833 420.5,798.167 418.5,796.5C 416.122,795.308 414.122,793.641 412.5,791.5 Z"/></g>
<g><path style="opacity:1" fill="#b1b1b1" d="M 638.5,794.5 C 639.5,795.167 640.5,795.833 641.5,796.5C 641.5,796.833 641.5,797.167 641.5,797.5C 640.5,797.5 639.5,797.5 638.5,797.5C 638.5,796.5 638.5,795.5 638.5,794.5 Z"/></g>
<g><path style="opacity:1" fill="#686868" d="M 641.5,797.5 C 641.5,797.167 641.5,796.833 641.5,796.5C 643.544,797.508 645.544,798.508 647.5,799.5C 645.142,799.747 643.142,799.081 641.5,797.5 Z"/></g>
<g><path style="opacity:1" fill="#cccccc" d="M 418.5,796.5 C 420.5,798.167 422.5,799.833 424.5,801.5C 424.5,801.833 424.5,802.167 424.5,802.5C 421.5,801.5 419.5,799.5 418.5,796.5 Z"/></g>
<g><path style="opacity:1" fill="#cbcbcb" d="M 641.5,797.5 C 643.142,799.081 645.142,799.747 647.5,799.5C 648.167,800.5 648.833,801.5 649.5,802.5C 647.188,801.68 644.854,800.847 642.5,800C 641.748,799.329 641.414,798.496 641.5,797.5 Z"/></g>
<g><path style="opacity:1" fill="#606060" d="M 647.5,799.5 C 651.1,801.43 654.1,804.097 656.5,807.5C 653.907,806.246 651.573,804.58 649.5,802.5C 648.833,801.5 648.167,800.5 647.5,799.5 Z"/></g>
<g><path style="opacity:1" fill="#9a9a9a" d="M 424.5,802.5 C 424.5,802.167 424.5,801.833 424.5,801.5C 427.086,802.638 428.753,804.638 429.5,807.5C 427.157,806.456 425.49,804.79 424.5,802.5 Z"/></g>
<g><path style="opacity:1" fill="#9e9e9e" d="M 656.5,807.5 C 657.833,808.167 658.833,809.167 659.5,810.5C 657.5,810.5 656.5,809.5 656.5,807.5 Z"/></g>
<g><path style="opacity:1" fill="#a3a3a3" d="M 659.5,810.5 C 661.5,811.833 663.167,813.5 664.5,815.5C 661.5,815.167 659.833,813.5 659.5,810.5 Z"/></g>
<g><path style="opacity:1" fill="#a8a8a8" d="M 365.5,819.5 C 363.435,819.483 361.435,819.15 359.5,818.5C 358.833,818.5 358.167,818.5 357.5,818.5C 348.676,817.343 339.676,817.176 330.5,818C 329.263,818.232 328.263,818.732 327.5,819.5C 326.833,819.5 326.5,819.833 326.5,820.5C 325.502,843.327 325.169,866.327 325.5,889.5C 324.337,866.337 324.17,843.004 325,819.5C 325.833,818.667 326.667,817.833 327.5,817C 339.167,816.333 350.833,816.333 362.5,817C 364.119,817.236 365.119,818.069 365.5,819.5 Z"/></g>
<g><path style="opacity:1" fill="#7e7e7e" d="M 429.5,807.5 C 432.685,811.112 435.352,815.112 437.5,819.5C 437.167,819.5 436.833,819.5 436.5,819.5C 433.309,815.981 430.975,811.981 429.5,807.5 Z"/></g>
<g><path style="opacity:1" fill="#959595" d="M 577.5,819.5 C 564.914,817.543 552.247,817.043 539.5,818C 538.263,818.232 537.263,818.732 536.5,819.5C 535.209,819.263 534.209,819.596 533.5,820.5C 533.5,871.833 533.5,923.167 533.5,974.5C 532.501,923.336 532.168,872.003 532.5,820.5C 532.5,820.167 532.5,819.833 532.5,819.5C 534.277,818.4 536.277,817.566 538.5,817C 550.167,816.333 561.833,816.333 573.5,817C 575.066,817.608 576.4,818.442 577.5,819.5 Z"/></g>
<g><path style="opacity:1" fill="#303030" d="M 357.5,818.5 C 347.468,818.271 337.468,818.604 327.5,819.5C 328.263,818.732 329.263,818.232 330.5,818C 339.676,817.176 348.676,817.343 357.5,818.5 Z"/></g>
<g><path style="opacity:1" fill="#000000" d="M 357.5,818.5 C 358.167,818.5 358.833,818.5 359.5,818.5C 359.611,819.117 359.944,819.617 360.5,820C 362.473,820.495 364.473,820.662 366.5,820.5C 366.833,820.5 367.167,820.5 367.5,820.5C 369.03,823.021 371.364,824.021 374.5,823.5C 375.5,824.167 376.5,824.833 377.5,825.5C 379.833,828.167 382.167,830.833 384.5,833.5C 386.733,842.263 387.733,851.263 387.5,860.5C 387.5,862.167 387.5,863.833 387.5,865.5C 386.542,865.953 385.708,866.619 385,867.5C 383.39,871.277 381.557,874.944 379.5,878.5C 377.596,878.738 376.262,879.738 375.5,881.5C 373.596,881.738 372.262,882.738 371.5,884.5C 370.833,884.5 370.167,884.5 369.5,884.5C 366.02,886.217 362.353,887.55 358.5,888.5C 347.833,888.5 337.167,888.5 326.5,888.5C 326.5,865.833 326.5,843.167 326.5,820.5C 326.5,819.833 326.833,819.5 327.5,819.5C 337.468,818.604 347.468,818.271 357.5,818.5 Z"/></g>
<g><path style="opacity:1" fill="#606060" d="M 577.5,819.5 C 577.5,819.833 577.5,820.167 577.5,820.5C 568.155,819.964 558.822,819.297 549.5,818.5C 545.131,818.467 540.798,818.8 536.5,819.5C 537.263,818.732 538.263,818.232 539.5,818C 552.247,817.043 564.914,817.543 577.5,819.5 Z"/></g>
<g><path style="opacity:1" fill="#bcbcbc" d="M 664.5,815.5 C 665.878,816.545 666.878,817.878 667.5,819.5C 667.5,820.167 667.5,820.833 667.5,821.5C 665.455,820.077 664.455,818.077 664.5,815.5 Z"/></g>
<g><path style="opacity:1" fill="#373737" d="M 359.5,818.5 C 361.435,819.15 363.435,819.483 365.5,819.5C 365.833,819.5 366.167,819.5 366.5,819.5C 366.5,819.833 366.5,820.167 366.5,820.5C 364.473,820.662 362.473,820.495 360.5,820C 359.944,819.617 359.611,819.117 359.5,818.5 Z"/></g>
<g><path style="opacity:1" fill="#393939" d="M 549.5,818.5 C 544.384,819.806 539.051,820.473 533.5,820.5C 534.209,819.596 535.209,819.263 536.5,819.5C 540.798,818.8 545.131,818.467 549.5,818.5 Z"/></g>
<g><path style="opacity:1" fill="#000000" d="M 549.5,818.5 C 558.822,819.297 568.155,819.964 577.5,820.5C 578.167,820.5 578.833,820.5 579.5,820.5C 579.611,821.117 579.944,821.617 580.5,822C 582.473,822.495 584.473,822.662 586.5,822.5C 587.5,822.5 588.5,822.5 589.5,822.5C 590.401,824.727 592.067,825.727 594.5,825.5C 594.953,826.458 595.619,827.292 596.5,828C 598.661,828.585 600.661,829.418 602.5,830.5C 603.29,831.401 604.29,832.068 605.5,832.5C 606.671,833.345 608.005,834.011 609.5,834.5C 609.5,834.833 609.5,835.167 609.5,835.5C 610.5,837.167 611.833,838.5 613.5,839.5C 614.167,840.833 615.167,841.833 616.5,842.5C 616.833,843.167 617.167,843.833 617.5,844.5C 619.14,847.782 621.14,850.782 623.5,853.5C 623.5,854.167 623.5,854.833 623.5,855.5C 624.508,857.544 625.508,859.544 626.5,861.5C 630.217,875.801 631.551,890.468 630.5,905.5C 630.56,911.295 629.893,916.961 628.5,922.5C 627.542,922.953 626.708,923.619 626,924.5C 625.503,926.81 625.337,929.143 625.5,931.5C 624.094,931.973 623.427,932.973 623.5,934.5C 623.5,935.167 623.5,935.833 623.5,936.5C 621.025,937.687 620.025,939.687 620.5,942.5C 619.094,942.973 618.427,943.973 618.5,945.5C 616.738,946.262 615.738,947.596 615.5,949.5C 613.1,951.296 611.433,953.63 610.5,956.5C 606.268,958.4 602.601,961.067 599.5,964.5C 597.079,965.891 594.412,966.725 591.5,967C 590.619,967.708 589.953,968.542 589.5,969.5C 587.302,969.12 585.635,969.787 584.5,971.5C 581.102,971.18 577.768,971.513 574.5,972.5C 574.137,973.183 573.804,973.85 573.5,974.5C 573.167,974.5 572.833,974.5 572.5,974.5C 568.069,974.231 563.735,974.564 559.5,975.5C 550.822,975.416 542.155,975.083 533.5,974.5C 533.5,923.167 533.5,871.833 533.5,820.5C 539.051,820.473 544.384,819.806 549.5,818.5 Z"/></g>
<g><path style="opacity:1" fill="#bababa" d="M 577.5,820.5 C 577.5,820.167 577.5,819.833 577.5,819.5C 582.312,818.965 586.645,819.965 590.5,822.5C 590.167,822.5 589.833,822.5 589.5,822.5C 588.5,822.5 587.5,822.5 586.5,822.5C 584.485,821.076 582.152,820.41 579.5,820.5C 578.833,820.5 578.167,820.5 577.5,820.5 Z"/></g>
<g><path style="opacity:1" fill="#757575" d="M 667.5,819.5 C 669.587,820.585 670.92,822.251 671.5,824.5C 670.833,824.167 670.167,823.833 669.5,823.5C 669.167,822.5 668.5,821.833 667.5,821.5C 667.5,820.833 667.5,820.167 667.5,819.5 Z"/></g>
<g><path style="opacity:1" fill="#e4e4e4" d="M 869.5,779.5 C 869.833,779.5 870.167,779.5 870.5,779.5C 870.5,793.5 870.5,807.5 870.5,821.5C 839.995,821.169 809.662,821.502 779.5,822.5C 779.167,822.5 778.833,822.5 778.5,822.5C 808.482,820.508 838.815,819.841 869.5,820.5C 869.5,806.833 869.5,793.167 869.5,779.5 Z"/></g>
<g><path style="opacity:1" fill="#5d5d5d" d="M 579.5,820.5 C 582.152,820.41 584.485,821.076 586.5,822.5C 584.473,822.662 582.473,822.495 580.5,822C 579.944,821.617 579.611,821.117 579.5,820.5 Z"/></g>
<g><path style="opacity:1" fill="#a2a2a2" d="M 870.5,779.5 C 871.496,793.657 871.829,807.99 871.5,822.5C 840.833,822.5 810.167,822.5 779.5,822.5C 809.662,821.502 839.995,821.169 870.5,821.5C 870.5,807.5 870.5,793.5 870.5,779.5 Z"/></g>
<g><path style="opacity:1" fill="#2b2b2b" d="M 367.5,820.5 C 370.018,821.264 372.351,822.264 374.5,823.5C 371.364,824.021 369.03,823.021 367.5,820.5 Z"/></g>
<g><path style="opacity:1" fill="#b6b6b6" d="M 366.5,820.5 C 366.5,820.167 366.5,819.833 366.5,819.5C 372.297,819.732 376.964,822.065 380.5,826.5C 379.609,825.89 378.609,825.557 377.5,825.5C 376.5,824.833 375.5,824.167 374.5,823.5C 372.351,822.264 370.018,821.264 367.5,820.5C 367.167,820.5 366.833,820.5 366.5,820.5 Z"/></g>
<g><path style="opacity:1" fill="#e8e8e8" d="M 532.5,819.5 C 532.5,819.833 532.5,820.167 532.5,820.5C 531.501,871.664 531.168,922.997 531.5,974.5C 530.833,948.836 530.5,923.002 530.5,897C 530.5,870.825 531.167,844.991 532.5,819.5 Z"/></g>
<g><path style="opacity:1" fill="#bdbdbd" d="M 532.5,820.5 C 532.168,872.003 532.501,923.336 533.5,974.5C 533.5,975.167 533.5,975.833 533.5,976.5C 532.5,976.167 531.833,975.5 531.5,974.5C 531.168,922.997 531.501,871.664 532.5,820.5 Z"/></g>
<g><path style="opacity:1" fill="#858585" d="M 589.5,822.5 C 589.833,822.5 590.167,822.5 590.5,822.5C 591.82,823.942 593.486,824.608 595.5,824.5C 595.5,824.833 595.5,825.167 595.5,825.5C 595.167,825.5 594.833,825.5 594.5,825.5C 592.067,825.727 590.401,824.727 589.5,822.5 Z"/></g>
<g><path style="opacity:1" fill="#444444" d="M 438.5,822.5 C 440.213,823.635 440.88,825.302 440.5,827.5C 440.167,827.5 439.833,827.5 439.5,827.5C 439.371,825.784 439.038,824.117 438.5,822.5 Z"/></g>
<g><path style="opacity:1" fill="#c0c0c0" d="M 595.5,825.5 C 595.5,825.167 595.5,824.833 595.5,824.5C 597.544,825.508 599.544,826.508 601.5,827.5C 599.142,827.747 597.142,827.081 595.5,825.5 Z"/></g>
<g><path style="opacity:1" fill="#b2b2b2" d="M 669.5,823.5 C 670.167,823.833 670.833,824.167 671.5,824.5C 672.167,825.5 672.833,826.5 673.5,827.5C 674.6,828.605 675.267,829.938 675.5,831.5C 672.97,829.283 670.97,826.616 669.5,823.5 Z"/></g>
<g><path style="opacity:1" fill="#797979" d="M 377.5,825.5 C 378.609,825.557 379.609,825.89 380.5,826.5C 382.631,828.611 384.298,830.944 385.5,833.5C 385.167,833.5 384.833,833.5 384.5,833.5C 382.167,830.833 379.833,828.167 377.5,825.5 Z"/></g>
<g><path style="opacity:1" fill="#545454" d="M 594.5,825.5 C 594.833,825.5 595.167,825.5 595.5,825.5C 597.142,827.081 599.142,827.747 601.5,827.5C 601.5,827.833 601.5,828.167 601.5,828.5C 601.833,829.167 602.167,829.833 602.5,830.5C 600.661,829.418 598.661,828.585 596.5,828C 595.619,827.292 594.953,826.458 594.5,825.5 Z"/></g>
<g><path style="opacity:1" fill="#3a3a3a" d="M 779.5,822.5 C 810.167,822.5 840.833,822.5 871.5,822.5C 841.338,823.498 811.005,823.831 780.5,823.5C 780.5,840.833 780.5,858.167 780.5,875.5C 808.672,875.169 836.672,875.502 864.5,876.5C 836.167,876.5 807.833,876.5 779.5,876.5C 779.5,858.5 779.5,840.5 779.5,822.5 Z"/></g>
<g><path style="opacity:1" fill="#9f9f9f" d="M 601.5,828.5 C 603.027,828.427 604.027,829.094 604.5,830.5C 603.833,830.5 603.167,830.5 602.5,830.5C 602.167,829.833 601.833,829.167 601.5,828.5 Z"/></g>
<g><path style="opacity:1" fill="#595959" d="M 602.5,830.5 C 603.167,830.5 603.833,830.5 604.5,830.5C 605.338,830.842 605.672,831.508 605.5,832.5C 604.29,832.068 603.29,831.401 602.5,830.5 Z"/></g>
<g><path style="opacity:1" fill="#a5a5a5" d="M 605.5,832.5 C 607.483,832.157 608.817,832.824 609.5,834.5C 608.005,834.011 606.671,833.345 605.5,832.5 Z"/></g>
<g><path style="opacity:1" fill="#3b3b3b" d="M 673.5,827.5 C 674.496,827.414 675.329,827.748 676,828.5C 676.585,830.661 677.418,832.661 678.5,834.5C 677.833,834.167 677.167,833.833 676.5,833.5C 675.662,833.158 675.328,832.492 675.5,831.5C 675.267,829.938 674.6,828.605 673.5,827.5 Z"/></g>
<g><path style="opacity:1" fill="#797979" d="M 439.5,827.5 C 439.833,827.5 440.167,827.5 440.5,827.5C 440.5,827.833 440.5,828.167 440.5,828.5C 441.72,830.282 442.386,832.282 442.5,834.5C 442.167,834.5 441.833,834.5 441.5,834.5C 440.067,832.442 439.4,830.108 439.5,827.5 Z"/></g>
<g><path style="opacity:1" fill="#dadada" d="M 436.5,819.5 C 436.833,819.5 437.167,819.5 437.5,819.5C 437.263,820.791 437.596,821.791 438.5,822.5C 439.038,824.117 439.371,825.784 439.5,827.5C 439.4,830.108 440.067,832.442 441.5,834.5C 441.5,835.833 441.5,837.167 441.5,838.5C 440.768,837.192 439.934,835.858 439,834.5C 438.567,829.332 437.733,824.332 436.5,819.5 Z"/></g>
<g><path style="opacity:1" fill="#636363" d="M 609.5,835.5 C 611.833,835.833 613.167,837.167 613.5,839.5C 611.833,838.5 610.5,837.167 609.5,835.5 Z"/></g>
<g><path style="opacity:1" fill="#7e7e7e" d="M 676.5,833.5 C 677.167,833.833 677.833,834.167 678.5,834.5C 678.5,835.167 678.5,835.833 678.5,836.5C 678.167,836.5 677.833,836.5 677.5,836.5C 676.89,835.609 676.557,834.609 676.5,833.5 Z"/></g>
<g><path style="opacity:1" fill="#7f7f7f" d="M 613.5,839.5 C 615.5,839.5 616.5,840.5 616.5,842.5C 615.167,841.833 614.167,840.833 613.5,839.5 Z"/></g>
<g><path style="opacity:1" fill="#c7c7c7" d="M 677.5,836.5 C 677.833,836.5 678.167,836.5 678.5,836.5C 678.5,836.833 678.5,837.167 678.5,837.5C 679.933,839.558 680.6,841.892 680.5,844.5C 678.62,842.245 677.62,839.578 677.5,836.5 Z"/></g>
<g><path style="opacity:1" fill="#666666" d="M 678.5,837.5 C 679.458,837.953 680.292,838.619 681,839.5C 682.131,842.445 682.964,845.445 683.5,848.5C 682.857,846.924 681.857,845.59 680.5,844.5C 680.6,841.892 679.933,839.558 678.5,837.5 Z"/></g>
<g><path style="opacity:1" fill="#a5a5a5" d="M 616.5,842.5 C 618.5,842.5 619.5,843.5 619.5,845.5C 618.833,845.167 618.167,844.833 617.5,844.5C 617.167,843.833 616.833,843.167 616.5,842.5 Z"/></g>
<g><path style="opacity:1" fill="#656565" d="M 385.5,834.5 C 387.975,835.687 388.975,837.687 388.5,840.5C 390.045,844.079 390.712,847.912 390.5,852C 390.481,855.252 389.814,858.085 388.5,860.5C 389.071,851.542 388.071,842.875 385.5,834.5 Z"/></g>
<g><path style="opacity:1" fill="#454545" d="M 617.5,844.5 C 618.167,844.833 618.833,845.167 619.5,845.5C 619.833,846.5 620.5,847.167 621.5,847.5C 621.704,849.685 622.37,851.685 623.5,853.5C 621.14,850.782 619.14,847.782 617.5,844.5 Z"/></g>
<g><path style="opacity:1" fill="#3f3f3f" d="M 440.5,828.5 C 441.15,828.804 441.817,829.137 442.5,829.5C 443.241,837.043 444.241,844.543 445.5,852C 444.447,856.596 443.447,861.096 442.5,865.5C 443.731,855.171 443.731,844.837 442.5,834.5C 442.386,832.282 441.72,830.282 440.5,828.5 Z"/></g>
<g><path style="opacity:1" fill="#cacaca" d="M 680.5,844.5 C 681.857,845.59 682.857,846.924 683.5,848.5C 683.5,849.167 683.5,849.833 683.5,850.5C 685.123,853.215 685.79,856.215 685.5,859.5C 683.014,854.815 681.347,849.815 680.5,844.5 Z"/></g>
<g><path style="opacity:1" fill="#1a1a1a" d="M 384.5,833.5 C 384.833,833.5 385.167,833.5 385.5,833.5C 385.5,833.833 385.5,834.167 385.5,834.5C 388.071,842.875 389.071,851.542 388.5,860.5C 388.167,860.5 387.833,860.5 387.5,860.5C 387.733,851.263 386.733,842.263 384.5,833.5 Z"/></g>
<g><path style="opacity:1" fill="#d0d0d0" d="M 388.5,840.5 C 389.458,840.953 390.292,841.619 391,842.5C 391.831,849.524 391.664,856.524 390.5,863.5C 389.817,863.863 389.15,864.196 388.5,864.5C 388.5,863.167 388.5,861.833 388.5,860.5C 389.814,858.085 390.481,855.252 390.5,852C 390.712,847.912 390.045,844.079 388.5,840.5 Z"/></g>
<g><path style="opacity:1" fill="#c3c3c3" d="M 621.5,847.5 C 623.818,849.185 624.818,851.519 624.5,854.5C 625.5,854.5 626.5,854.5 627.5,854.5C 627.424,858.384 628.09,862.05 629.5,865.5C 628.857,863.924 627.857,862.59 626.5,861.5C 626.975,858.687 625.975,856.687 623.5,855.5C 623.5,854.833 623.5,854.167 623.5,853.5C 622.37,851.685 621.704,849.685 621.5,847.5 Z"/></g>
<g><path style="opacity:1" fill="#535353" d="M 683.5,850.5 C 684.458,850.953 685.292,851.619 686,852.5C 686.497,855.146 686.664,857.813 686.5,860.5C 686.167,860.5 685.833,860.5 685.5,860.5C 685.5,860.167 685.5,859.833 685.5,859.5C 685.79,856.215 685.123,853.215 683.5,850.5 Z"/></g>
<g><path style="opacity:1" fill="#484848" d="M 623.5,855.5 C 625.975,856.687 626.975,858.687 626.5,861.5C 625.508,859.544 624.508,857.544 623.5,855.5 Z"/></g>
<g><path style="opacity:1" fill="#979797" d="M 685.5,860.5 C 685.833,860.5 686.167,860.5 686.5,860.5C 688.064,864.674 688.731,869.007 688.5,873.5C 687.598,869.245 686.598,864.911 685.5,860.5 Z"/></g>
<g><path style="opacity:1" fill="#303030" d="M 686.5,860.5 C 687.79,861.058 688.623,862.058 689,863.5C 689.498,866.817 689.665,870.15 689.5,873.5C 689.167,873.5 688.833,873.5 688.5,873.5C 688.731,869.007 688.064,864.674 686.5,860.5 Z"/></g>
<g><path style="opacity:1" fill="#8c8c8c" d="M 387.5,860.5 C 387.833,860.5 388.167,860.5 388.5,860.5C 388.5,861.833 388.5,863.167 388.5,864.5C 388.975,867.313 387.975,869.313 385.5,870.5C 386.167,868.833 386.833,867.167 387.5,865.5C 387.5,863.833 387.5,862.167 387.5,860.5 Z"/></g>
<g><path style="opacity:1" fill="#545454" d="M 387.5,865.5 C 386.833,867.167 386.167,868.833 385.5,870.5C 383.984,873.533 381.984,876.2 379.5,878.5C 381.557,874.944 383.39,871.277 385,867.5C 385.708,866.619 386.542,865.953 387.5,865.5 Z"/></g>
<g><path style="opacity:1" fill="#bcbcbc" d="M 629.5,868.5 C 630.15,868.804 630.817,869.137 631.5,869.5C 632.499,880.146 632.832,890.813 632.5,901.5C 632.167,901.5 631.833,901.5 631.5,901.5C 631.666,892.161 631.5,882.827 631,873.5C 629.731,872.095 629.231,870.429 629.5,868.5 Z"/></g>
<g><path style="opacity:1" fill="#696969" d="M 442.5,870.5 C 440.98,873.579 440.147,876.912 440,880.5C 439.623,881.942 438.79,882.942 437.5,883.5C 438.752,880.017 439.586,876.351 440,872.5C 440.708,871.619 441.542,870.953 442.5,870.5 Z"/></g>
<g><path style="opacity:1" fill="#595959" d="M 626.5,861.5 C 627.857,862.59 628.857,863.924 629.5,865.5C 629.5,866.5 629.5,867.5 629.5,868.5C 629.231,870.429 629.731,872.095 631,873.5C 631.5,882.827 631.666,892.161 631.5,901.5C 631.5,902.833 631.5,904.167 631.5,905.5C 631.167,905.5 630.833,905.5 630.5,905.5C 631.551,890.468 630.217,875.801 626.5,861.5 Z"/></g>
<g><path style="opacity:1" fill="#9b9b9b" d="M 778.5,822.5 C 778.833,822.5 779.167,822.5 779.5,822.5C 779.5,840.5 779.5,858.5 779.5,876.5C 807.833,876.5 836.167,876.5 864.5,876.5C 864.5,876.833 864.5,877.167 864.5,877.5C 864.167,877.5 863.833,877.5 863.5,877.5C 835.167,877.5 806.833,877.5 778.5,877.5C 778.5,859.167 778.5,840.833 778.5,822.5 Z"/></g>
<g><path style="opacity:1" fill="#bcbcbc" d="M 441.5,834.5 C 441.833,834.5 442.167,834.5 442.5,834.5C 443.731,844.837 443.731,855.171 442.5,865.5C 442.5,867.167 442.5,868.833 442.5,870.5C 441.542,870.953 440.708,871.619 440,872.5C 439.586,876.351 438.752,880.017 437.5,883.5C 437.5,884.167 437.5,884.833 437.5,885.5C 436.512,886.795 435.512,888.128 434.5,889.5C 434.167,889.5 433.833,889.5 433.5,889.5C 435.684,882.14 438.184,874.807 441,867.5C 441.5,857.839 441.666,848.172 441.5,838.5C 441.5,837.167 441.5,835.833 441.5,834.5 Z"/></g>
<g><path style="opacity:1" fill="#5d5d5d" d="M 379.5,878.5 C 379.167,879.167 378.833,879.833 378.5,880.5C 377.609,881.11 376.609,881.443 375.5,881.5C 376.262,879.738 377.596,878.738 379.5,878.5 Z"/></g>
<g><path style="opacity:1" fill="#5c5c5c" d="M 864.5,877.5 C 864.5,877.167 864.5,876.833 864.5,876.5C 865.831,883.468 866.497,890.802 866.5,898.5C 866.5,906.008 866.166,913.341 865.5,920.5C 865.829,905.99 865.496,891.657 864.5,877.5 Z"/></g>
<g><path style="opacity:1" fill="#6f6f6f" d="M 375.5,881.5 C 374.833,882.5 374.167,883.5 373.5,884.5C 372.833,884.5 372.167,884.5 371.5,884.5C 372.262,882.738 373.596,881.738 375.5,881.5 Z"/></g>
<g><path style="opacity:1" fill="#cbcbcb" d="M 378.5,880.5 C 377.461,882.531 375.795,883.864 373.5,884.5C 374.167,883.5 374.833,882.5 375.5,881.5C 376.609,881.443 377.609,881.11 378.5,880.5 Z"/></g>
<g><path style="opacity:1" fill="#3a3a3a" d="M 326.5,820.5 C 326.5,843.167 326.5,865.833 326.5,888.5C 337.167,888.5 347.833,888.5 358.5,888.5C 356.833,889.167 355.167,889.833 353.5,890.5C 344.151,890.517 334.818,890.183 325.5,889.5C 325.169,866.327 325.502,843.327 326.5,820.5 Z"/></g>
<g><path style="opacity:1" fill="#888888" d="M 369.5,884.5 C 367.233,886.778 364.567,888.611 361.5,890C 358.854,890.497 356.187,890.664 353.5,890.5C 355.167,889.833 356.833,889.167 358.5,888.5C 362.353,887.55 366.02,886.217 369.5,884.5 Z"/></g>
<g><path style="opacity:1" fill="#2d2d2d" d="M 437.5,885.5 C 436.912,888.063 435.912,890.396 434.5,892.5C 434.5,891.5 434.5,890.5 434.5,889.5C 435.512,888.128 436.512,886.795 437.5,885.5 Z"/></g>
<g><path style="opacity:1" fill="#afafaf" d="M 325.5,889.5 C 334.818,890.183 344.151,890.517 353.5,890.5C 351.085,891.814 348.252,892.481 345,892.5C 338.239,892.339 331.739,891.339 325.5,889.5 Z"/></g>
<g><path style="opacity:1" fill="#696969" d="M 688.5,873.5 C 688.833,873.5 689.167,873.5 689.5,873.5C 689.5,873.833 689.5,874.167 689.5,874.5C 690.676,886.136 690.676,897.803 689.5,909.5C 689.167,909.5 688.833,909.5 688.5,909.5C 688.5,897.5 688.5,885.5 688.5,873.5 Z"/></g>
<g><path style="opacity:1" fill="#909090" d="M 433.5,889.5 C 433.833,889.5 434.167,889.5 434.5,889.5C 434.5,890.5 434.5,891.5 434.5,892.5C 433.5,892.833 432.833,893.5 432.5,894.5C 432.167,894.5 431.833,894.5 431.5,894.5C 431.365,892.446 432.032,890.779 433.5,889.5 Z"/></g>
<g><path style="opacity:1" fill="#404040" d="M 431.5,894.5 C 431.833,894.5 432.167,894.5 432.5,894.5C 432.715,896.179 432.048,897.179 430.5,897.5C 431.11,896.609 431.443,895.609 431.5,894.5 Z"/></g>
<g><path style="opacity:1" fill="#818181" d="M 431.5,894.5 C 431.443,895.609 431.11,896.609 430.5,897.5C 428.241,901.43 425.241,904.763 421.5,907.5C 424.582,903.016 427.916,898.683 431.5,894.5 Z"/></g>
<g><path style="opacity:1" fill="#d1d1d1" d="M 631.5,901.5 C 631.833,901.5 632.167,901.5 632.5,901.5C 633.117,907.598 632.45,913.265 630.5,918.5C 631.373,914.232 631.706,909.898 631.5,905.5C 631.5,904.167 631.5,902.833 631.5,901.5 Z"/></g>
<g><path style="opacity:1" fill="#222222" d="M 689.5,874.5 C 690.117,874.611 690.617,874.944 691,875.5C 691.167,881.167 691.333,886.833 691.5,892.5C 691.496,898.542 690.829,904.208 689.5,909.5C 690.676,897.803 690.676,886.136 689.5,874.5 Z"/></g>
<g><path style="opacity:1" fill="#a3a3a3" d="M 418.5,909.5 C 416.469,911.522 414.135,913.189 411.5,914.5C 412.979,911.695 415.312,910.028 418.5,909.5 Z"/></g>
<g><path style="opacity:1" fill="#b0b0b0" d="M 411.5,914.5 C 409.777,916.218 407.777,917.551 405.5,918.5C 405.167,918.5 404.833,918.5 404.5,918.5C 406.34,916.331 408.674,914.998 411.5,914.5 Z"/></g>
<g><path style="opacity:1" fill="#7f7f7f" d="M 630.5,905.5 C 630.833,905.5 631.167,905.5 631.5,905.5C 631.706,909.898 631.373,914.232 630.5,918.5C 629.833,920.5 629.167,922.5 628.5,924.5C 628.5,923.833 628.5,923.167 628.5,922.5C 629.893,916.961 630.56,911.295 630.5,905.5 Z"/></g>
<g><path style="opacity:1" fill="#686868" d="M 688.5,912.5 C 689.088,919.295 688.088,925.628 685.5,931.5C 685.5,930.167 685.5,928.833 685.5,927.5C 685.978,922.273 686.978,917.273 688.5,912.5 Z"/></g>
<g><path style="opacity:1" fill="#bebebe" d="M 863.5,877.5 C 863.833,877.5 864.167,877.5 864.5,877.5C 865.496,891.657 865.829,905.99 865.5,920.5C 865.167,920.5 864.833,920.5 864.5,920.5C 836.167,920.5 807.833,920.5 779.5,920.5C 779.5,952.5 779.5,984.5 779.5,1016.5C 779.167,1016.5 778.833,1016.5 778.5,1016.5C 778.5,1016.17 778.5,1015.83 778.5,1015.5C 778.5,983.5 778.5,951.5 778.5,919.5C 806.833,919.5 835.167,919.5 863.5,919.5C 863.5,905.5 863.5,891.5 863.5,877.5 Z"/></g>
<g><path style="opacity:1" fill="#545454" d="M 404.5,918.5 C 404.833,918.5 405.167,918.5 405.5,918.5C 403.338,920.897 400.671,922.564 397.5,923.5C 398.167,922.5 398.833,921.5 399.5,920.5C 401.514,920.608 403.18,919.942 404.5,918.5 Z"/></g>
<g><path style="opacity:1" fill="#afafaf" d="M 399.5,920.5 C 398.833,921.5 398.167,922.5 397.5,923.5C 394.67,923.694 392.004,924.361 389.5,925.5C 389.804,924.85 390.137,924.183 390.5,923.5C 393.565,922.623 396.565,921.623 399.5,920.5 Z"/></g>
<g><path style="opacity:1" fill="#525252" d="M 864.5,920.5 C 837.338,921.498 810.005,921.831 782.5,921.5C 780.507,952.816 779.841,984.482 780.5,1016.5C 780.167,1016.5 779.833,1016.5 779.5,1016.5C 779.5,984.5 779.5,952.5 779.5,920.5C 807.833,920.5 836.167,920.5 864.5,920.5 Z"/></g>
<g><path style="opacity:1" fill="#1c1c1c" d="M 782.5,921.5 C 781.84,953.264 781.174,984.931 780.5,1016.5C 779.841,984.482 780.507,952.816 782.5,921.5 Z"/></g>
<g><path style="opacity:1" fill="#363636" d="M 397.5,923.5 C 394.749,925.975 391.416,926.975 387.5,926.5C 387.5,926.167 387.5,925.833 387.5,925.5C 388.167,925.5 388.833,925.5 389.5,925.5C 392.004,924.361 394.67,923.694 397.5,923.5 Z"/></g>
<g><path style="opacity:1" fill="#cecece" d="M 387.5,925.5 C 387.5,925.833 387.5,926.167 387.5,926.5C 384.848,926.41 382.515,927.076 380.5,928.5C 380.167,928.5 379.833,928.5 379.5,928.5C 375.556,928.113 371.889,928.78 368.5,930.5C 368.5,929.5 368.5,928.5 368.5,927.5C 375.024,927.666 381.357,926.999 387.5,925.5 Z"/></g>
<g><path style="opacity:1" fill="#666666" d="M 387.5,926.5 C 385.485,927.924 383.152,928.59 380.5,928.5C 382.515,927.076 384.848,926.41 387.5,926.5 Z"/></g>
<g><path style="opacity:1" fill="#3f3f3f" d="M 628.5,922.5 C 628.5,923.167 628.5,923.833 628.5,924.5C 626.787,925.635 626.12,927.302 626.5,929.5C 626.5,930.167 626.5,930.833 626.5,931.5C 626.167,931.5 625.833,931.5 625.5,931.5C 625.337,929.143 625.503,926.81 626,924.5C 626.708,923.619 627.542,922.953 628.5,922.5 Z"/></g>
<g><path style="opacity:1" fill="#909090" d="M 628.5,924.5 C 628.88,926.698 628.213,928.365 626.5,929.5C 626.12,927.302 626.787,925.635 628.5,924.5 Z"/></g>
<g><path style="opacity:1" fill="#5f5f5f" d="M 379.5,928.5 C 375.947,929.561 372.281,930.561 368.5,931.5C 368.5,931.167 368.5,930.833 368.5,930.5C 371.889,928.78 375.556,928.113 379.5,928.5 Z"/></g>
<g><path style="opacity:1" fill="#969696" d="M 325.5,931.5 C 339.657,930.504 353.99,930.171 368.5,930.5C 368.5,930.833 368.5,931.167 368.5,931.5C 365.5,931.5 362.5,931.5 359.5,931.5C 351.514,932.099 343.514,932.432 335.5,932.5C 332.375,931.521 329.042,931.187 325.5,931.5 Z"/></g>
<g><path style="opacity:1" fill="#b9b9b9" d="M 479.5,781.5 C 479.5,859.5 479.5,937.5 479.5,1015.5C 492.415,1015.2 505.082,1016.2 517.5,1018.5C 513.833,1018.5 510.167,1018.5 506.5,1018.5C 501.167,1018.17 495.833,1017.83 490.5,1017.5C 490.167,1017.5 489.833,1017.5 489.5,1017.5C 485.833,1016.83 482.167,1016.17 478.5,1015.5C 478.167,937.332 478.501,859.332 479.5,781.5 Z"/></g>
<g><path style="opacity:1" fill="#c0c0c0" d="M 325.5,931.5 C 325.5,959.833 325.5,988.167 325.5,1016.5C 307.659,1016.83 289.992,1016.5 272.5,1015.5C 272.833,1015.5 273.167,1015.5 273.5,1015.5C 290.5,1015.5 307.5,1015.5 324.5,1015.5C 324.169,987.328 324.502,959.328 325.5,931.5 Z"/></g>
<g><path style="opacity:1" fill="#444444" d="M 625.5,931.5 C 625.573,933.027 624.906,934.027 623.5,934.5C 623.427,932.973 624.094,931.973 625.5,931.5 Z"/></g>
<g><path style="opacity:1" fill="#bcbcbc" d="M 685.5,927.5 C 685.5,928.833 685.5,930.167 685.5,931.5C 683.787,932.635 683.12,934.302 683.5,936.5C 683.5,937.167 683.5,937.833 683.5,938.5C 683.167,938.5 682.833,938.5 682.5,938.5C 682.335,935.482 682.502,932.482 683,929.5C 683.708,928.619 684.542,927.953 685.5,927.5 Z"/></g>
<g><path style="opacity:1" fill="#595959" d="M 325.5,931.5 C 329.042,931.187 332.375,931.521 335.5,932.5C 333.5,932.5 331.5,932.5 329.5,932.5C 328.5,932.5 327.5,932.5 326.5,932.5C 326.831,960.672 326.498,988.672 325.5,1016.5C 325.5,988.167 325.5,959.833 325.5,931.5 Z"/></g>
<g><path style="opacity:1" fill="#2b2b2b" d="M 359.5,931.5 C 358.909,932.151 358.243,932.818 357.5,933.5C 347.958,934.933 338.625,934.6 329.5,932.5C 331.5,932.5 333.5,932.5 335.5,932.5C 343.514,932.432 351.514,932.099 359.5,931.5 Z"/></g>
<g><path style="opacity:1" fill="#656565" d="M 685.5,931.5 C 685.204,933.403 684.537,935.07 683.5,936.5C 683.12,934.302 683.787,932.635 685.5,931.5 Z"/></g>
<g><path style="opacity:1" fill="#a5a5a5" d="M 625.5,931.5 C 625.833,931.5 626.167,931.5 626.5,931.5C 625.912,934.063 624.912,936.396 623.5,938.5C 623.5,937.833 623.5,937.167 623.5,936.5C 623.5,935.833 623.5,935.167 623.5,934.5C 624.906,934.027 625.573,933.027 625.5,931.5 Z"/></g>
<g><path style="opacity:1" fill="#565656" d="M 623.5,936.5 C 623.5,937.167 623.5,937.833 623.5,938.5C 622.143,939.59 621.143,940.924 620.5,942.5C 620.025,939.687 621.025,937.687 623.5,936.5 Z"/></g>
<g><path style="opacity:1" fill="#aeaeae" d="M 682.5,938.5 C 682.573,940.027 681.906,941.027 680.5,941.5C 680.427,939.973 681.094,938.973 682.5,938.5 Z"/></g>
<g><path style="opacity:1" fill="#5b5b5b" d="M 682.5,938.5 C 682.833,938.5 683.167,938.5 683.5,938.5C 682.912,941.063 681.912,943.396 680.5,945.5C 680.5,944.167 680.5,942.833 680.5,941.5C 681.906,941.027 682.573,940.027 682.5,938.5 Z"/></g>
<g><path style="opacity:1" fill="#5d5d5d" d="M 620.5,942.5 C 620.573,944.027 619.906,945.027 618.5,945.5C 618.427,943.973 619.094,942.973 620.5,942.5 Z"/></g>
<g><path style="opacity:1" fill="#5d5d5d" d="M 618.5,945.5 C 618.262,947.404 617.262,948.738 615.5,949.5C 615.738,947.596 616.738,946.262 618.5,945.5 Z"/></g>
<g><path style="opacity:1" fill="#898989" d="M 680.5,945.5 C 679.373,948.872 678.04,952.206 676.5,955.5C 676.167,955.5 675.833,955.5 675.5,955.5C 676.772,952.652 677.605,949.652 678,946.5C 678.671,945.748 679.504,945.414 680.5,945.5 Z"/></g>
<g><path style="opacity:1" fill="#7a7a7a" d="M 615.5,949.5 C 614.567,952.37 612.9,954.704 610.5,956.5C 611.433,953.63 613.1,951.296 615.5,949.5 Z"/></g>
<g><path style="opacity:1" fill="#6e6e6e" d="M 610.5,956.5 C 608.5,958.5 606.5,960.5 604.5,962.5C 602.833,963.167 601.167,963.833 599.5,964.5C 602.601,961.067 606.268,958.4 610.5,956.5 Z"/></g>
<g><path style="opacity:1" fill="#7f7f7f" d="M 672.5,961.5 C 672.443,962.609 672.11,963.609 671.5,964.5C 671.167,964.5 670.833,964.5 670.5,964.5C 670.427,962.973 671.094,961.973 672.5,961.5 Z"/></g>
<g><path style="opacity:1" fill="#373737" d="M 675.5,955.5 C 675.833,955.5 676.167,955.5 676.5,955.5C 676.762,956.978 676.429,958.311 675.5,959.5C 674.311,961.363 672.978,963.03 671.5,964.5C 672.11,963.609 672.443,962.609 672.5,961.5C 673.471,959.517 674.471,957.517 675.5,955.5 Z"/></g>
<g><path style="opacity:1" fill="#d3d3d3" d="M 604.5,962.5 C 601.396,965.937 597.729,968.604 593.5,970.5C 593.557,969.391 593.89,968.391 594.5,967.5C 596.933,967.727 598.599,966.727 599.5,964.5C 601.167,963.833 602.833,963.167 604.5,962.5 Z"/></g>
<g><path style="opacity:1" fill="#919191" d="M 670.5,964.5 C 670.262,966.404 669.262,967.738 667.5,968.5C 667.738,966.596 668.738,965.262 670.5,964.5 Z"/></g>
<g><path style="opacity:1" fill="#4f4f4f" d="M 599.5,964.5 C 598.599,966.727 596.933,967.727 594.5,967.5C 592.833,968.167 591.167,968.833 589.5,969.5C 589.953,968.542 590.619,967.708 591.5,967C 594.412,966.725 597.079,965.891 599.5,964.5 Z"/></g>
<g><path style="opacity:1" fill="#4b4b4b" d="M 589.5,969.5 C 588.07,970.537 586.403,971.204 584.5,971.5C 585.635,969.787 587.302,969.12 589.5,969.5 Z"/></g>
<g><path style="opacity:1" fill="#343434" d="M 584.5,971.5 C 580.994,972.733 577.327,973.733 573.5,974.5C 573.804,973.85 574.137,973.183 574.5,972.5C 577.768,971.513 581.102,971.18 584.5,971.5 Z"/></g>
<g><path style="opacity:1" fill="#8f8f8f" d="M 667.5,969.5 C 665.183,973.146 662.516,976.48 659.5,979.5C 661.119,975.226 663.786,971.893 667.5,969.5 Z"/></g>
<g><path style="opacity:1" fill="#b9b9b9" d="M 594.5,967.5 C 593.89,968.391 593.557,969.391 593.5,970.5C 589.118,971.905 584.785,973.405 580.5,975C 577.854,975.497 575.187,975.664 572.5,975.5C 572.5,975.167 572.5,974.833 572.5,974.5C 572.833,974.5 573.167,974.5 573.5,974.5C 577.327,973.733 580.994,972.733 584.5,971.5C 586.403,971.204 588.07,970.537 589.5,969.5C 591.167,968.833 592.833,968.167 594.5,967.5 Z"/></g>
<g><path style="opacity:1" fill="#4c4c4c" d="M 533.5,974.5 C 542.155,975.083 550.822,975.416 559.5,975.5C 559.5,975.833 559.5,976.167 559.5,976.5C 550.996,977.5 542.33,977.5 533.5,976.5C 533.5,975.833 533.5,975.167 533.5,974.5 Z"/></g>
<g><path style="opacity:1" fill="#616161" d="M 572.5,974.5 C 572.5,974.833 572.5,975.167 572.5,975.5C 568.202,976.2 563.869,976.533 559.5,976.5C 559.5,976.167 559.5,975.833 559.5,975.5C 563.735,974.564 568.069,974.231 572.5,974.5 Z"/></g>
<g><path style="opacity:1" fill="#c1c1c1" d="M 572.5,975.5 C 571.909,976.151 571.243,976.818 570.5,977.5C 565.333,977.833 560.167,978.167 555,978.5C 547.598,978.706 540.432,978.039 533.5,976.5C 542.33,977.5 550.996,977.5 559.5,976.5C 563.869,976.533 568.202,976.2 572.5,975.5 Z"/></g>
<g><path style="opacity:1" fill="#919191" d="M 659.5,979.5 C 656.14,983.527 652.473,987.194 648.5,990.5C 646.938,990.733 645.605,991.4 644.5,992.5C 644.414,991.504 644.748,990.671 645.5,990C 650.345,986.644 655.012,983.144 659.5,979.5 Z"/></g>
<g><path style="opacity:1" fill="#3d3d3d" d="M 648.5,990.5 C 647.198,992.822 645.198,994.155 642.5,994.5C 642.833,993.5 643.5,992.833 644.5,992.5C 645.605,991.4 646.938,990.733 648.5,990.5 Z"/></g>
<g><path style="opacity:1" fill="#555555" d="M 642.5,994.5 C 641.652,996.093 640.319,997.26 638.5,998C 637.552,998.483 636.552,998.649 635.5,998.5C 637.35,996.428 639.683,995.095 642.5,994.5 Z"/></g>
<g><path style="opacity:1" fill="#727272" d="M 635.5,998.5 C 635.047,999.458 634.381,1000.29 633.5,1001C 631.189,1001.24 629.189,1002.07 627.5,1003.5C 626.833,1003.5 626.167,1003.5 625.5,1003.5C 628.48,1001.24 631.813,999.577 635.5,998.5 Z"/></g>
<g><path style="opacity:1" fill="#464646" d="M 623.5,1003.5 C 624.167,1003.5 624.833,1003.5 625.5,1003.5C 626.167,1003.5 626.833,1003.5 627.5,1003.5C 625.396,1004.91 623.063,1005.91 620.5,1006.5C 621.694,1005.73 622.694,1004.73 623.5,1003.5 Z"/></g>
<g><path style="opacity:1" fill="#c2c2c2" d="M 623.5,1003.5 C 622.694,1004.73 621.694,1005.73 620.5,1006.5C 619.5,1006.5 618.5,1006.5 617.5,1006.5C 615.973,1006.43 614.973,1007.09 614.5,1008.5C 611.402,1008.76 608.402,1009.42 605.5,1010.5C 605.5,1009.5 605.5,1008.5 605.5,1007.5C 611.573,1006.82 617.573,1005.48 623.5,1003.5 Z"/></g>
<g><path style="opacity:1" fill="#757575" d="M 617.5,1006.5 C 617.027,1007.91 616.027,1008.57 614.5,1008.5C 614.973,1007.09 615.973,1006.43 617.5,1006.5 Z"/></g>
<g><path style="opacity:1" fill="#e8e8e8" d="M 1112.5,628.5 C 1113.54,756.333 1114.21,884.333 1114.5,1012.5C 1114.5,1028.5 1114.5,1044.5 1114.5,1060.5C 1113.67,1035 1113.17,1009.34 1113,983.5C 1112.5,865.167 1112.33,746.834 1112.5,628.5 Z"/></g>
<g><path style="opacity:1" fill="#4f4f4f" d="M 614.5,1008.5 C 612.077,1010.86 609.077,1011.86 605.5,1011.5C 605.5,1011.17 605.5,1010.83 605.5,1010.5C 608.402,1009.42 611.402,1008.76 614.5,1008.5 Z"/></g>
<g><path style="opacity:1" fill="#b0b0b0" d="M 605.5,1010.5 C 605.5,1010.83 605.5,1011.17 605.5,1011.5C 604.833,1011.5 604.167,1011.5 603.5,1011.5C 599.833,1012.17 596.167,1012.83 592.5,1013.5C 596.405,1011.12 600.739,1010.12 605.5,1010.5 Z"/></g>
<g><path style="opacity:1" fill="#464646" d="M 603.5,1011.5 C 600.325,1013.88 596.658,1014.88 592.5,1014.5C 592.5,1014.17 592.5,1013.83 592.5,1013.5C 596.167,1012.83 599.833,1012.17 603.5,1011.5 Z"/></g>
<g><path style="opacity:1" fill="#949494" d="M 592.5,1013.5 C 592.5,1013.83 592.5,1014.17 592.5,1014.5C 591.5,1014.5 590.5,1014.5 589.5,1014.5C 586.848,1014.41 584.515,1015.08 582.5,1016.5C 581.167,1016.5 579.833,1016.5 578.5,1016.5C 582.738,1014.04 587.404,1013.04 592.5,1013.5 Z"/></g>
<g><path style="opacity:1" fill="#515151" d="M 589.5,1014.5 C 587.485,1015.92 585.152,1016.59 582.5,1016.5C 584.515,1015.08 586.848,1014.41 589.5,1014.5 Z"/></g>
<g><path style="opacity:1" fill="#afafaf" d="M 573.5,1016.5 C 573.5,1016.83 573.5,1017.17 573.5,1017.5C 565.164,1017.78 556.831,1018.12 548.5,1018.5C 556.605,1016.82 564.938,1016.16 573.5,1016.5 Z"/></g>
<g><path style="opacity:1" fill="#171717" d="M 778.5,1016.5 C 778.833,1016.5 779.167,1016.5 779.5,1016.5C 779.833,1016.5 780.167,1016.5 780.5,1016.5C 780.389,1017.12 780.056,1017.62 779.5,1018C 760.995,1018.83 742.662,1018.66 724.5,1017.5C 742.674,1017.83 760.674,1017.5 778.5,1016.5 Z"/></g>
<g><path style="opacity:1" fill="#1c1c1c" d="M 573.5,1016.5 C 575.167,1016.5 576.833,1016.5 578.5,1016.5C 579.833,1016.5 581.167,1016.5 582.5,1016.5C 579.377,1017.09 576.377,1018.26 573.5,1020C 546.833,1020.67 520.167,1020.67 493.5,1020C 491.347,1019.9 489.681,1019.07 488.5,1017.5C 488.833,1017.5 489.167,1017.5 489.5,1017.5C 489.833,1017.5 490.167,1017.5 490.5,1017.5C 495.568,1019.18 500.902,1019.84 506.5,1019.5C 528.169,1019.67 549.836,1019.5 571.5,1019C 572.416,1018.72 573.082,1018.22 573.5,1017.5C 573.5,1017.17 573.5,1016.83 573.5,1016.5 Z"/></g>
<g><path style="opacity:1" fill="#656565" d="M 573.5,1017.5 C 573.082,1018.22 572.416,1018.72 571.5,1019C 549.836,1019.5 528.169,1019.67 506.5,1019.5C 506.5,1019.17 506.5,1018.83 506.5,1018.5C 510.167,1018.5 513.833,1018.5 517.5,1018.5C 527.833,1018.5 538.167,1018.5 548.5,1018.5C 556.831,1018.12 565.164,1017.78 573.5,1017.5 Z"/></g>
<g><path style="opacity:1" fill="#4f4f4f" d="M 490.5,1017.5 C 495.833,1017.83 501.167,1018.17 506.5,1018.5C 506.5,1018.83 506.5,1019.17 506.5,1019.5C 500.902,1019.84 495.568,1019.18 490.5,1017.5 Z"/></g>
<g><path style="opacity:1" fill="#343434" d="M 1011.5,1078.5 C 1010.23,1081.35 1009.39,1084.35 1009,1087.5C 1008.29,1088.38 1007.46,1089.05 1006.5,1089.5C 1007.87,1086.36 1008.87,1083.02 1009.5,1079.5C 1010.18,1079.14 1010.85,1078.8 1011.5,1078.5 Z"/></g>
<g><path style="opacity:1" fill="#aaaaaa" d="M 1011.5,1076.5 C 1011.83,1076.5 1012.17,1076.5 1012.5,1076.5C 1012.38,1084.06 1009.71,1090.39 1004.5,1095.5C 1004.73,1093.94 1005.4,1092.6 1006.5,1091.5C 1006.5,1090.83 1006.5,1090.17 1006.5,1089.5C 1007.46,1089.05 1008.29,1088.38 1009,1087.5C 1009.39,1084.35 1010.23,1081.35 1011.5,1078.5C 1011.5,1077.83 1011.5,1077.17 1011.5,1076.5 Z"/></g>
<g><path style="opacity:1" fill="#424242" d="M 1006.5,1091.5 C 1005.4,1092.6 1004.73,1093.94 1004.5,1095.5C 1004.17,1095.5 1003.83,1095.5 1003.5,1095.5C 1003.09,1093.03 1004.09,1091.69 1006.5,1091.5 Z"/></g>
<g><path style="opacity:1" fill="#c7c7c7" d="M 1114.5,1012.5 C 1114.83,1012.5 1115.17,1012.5 1115.5,1012.5C 1115.5,1071.83 1115.5,1131.17 1115.5,1190.5C 1114.93,1192.42 1113.93,1194.09 1112.5,1195.5C 1112.3,1193.01 1112.8,1190.68 1114,1188.5C 1114.5,1145.83 1114.67,1103.17 1114.5,1060.5C 1114.5,1044.5 1114.5,1028.5 1114.5,1012.5 Z"/></g>
<g><path style="opacity:1" fill="#636363" d="M 1003.5,1095.5 C 1003.83,1095.5 1004.17,1095.5 1004.5,1095.5C 1000.49,1101.51 995.494,1106.51 989.5,1110.5C 986.66,1112.22 983.66,1113.56 980.5,1114.5C 989.5,1109.83 997.166,1103.49 1003.5,1095.5 Z"/></g>
<g><path style="opacity:1" fill="#bfbfbf" d="M 989.5,1110.5 C 989.586,1111.5 989.252,1112.33 988.5,1113C 984.357,1115.21 980.023,1116.71 975.5,1117.5C 975.5,1117.17 975.5,1116.83 975.5,1116.5C 977.403,1116.2 979.07,1115.54 980.5,1114.5C 983.66,1113.56 986.66,1112.22 989.5,1110.5 Z"/></g>
<g><path style="opacity:1" fill="#434343" d="M 980.5,1114.5 C 979.07,1115.54 977.403,1116.2 975.5,1116.5C 976.635,1114.79 978.302,1114.12 980.5,1114.5 Z"/></g>
<g><path style="opacity:1" fill="#4a4a4a" d="M 975.5,1116.5 C 975.5,1116.83 975.5,1117.17 975.5,1117.5C 971.314,1118.91 966.981,1119.57 962.5,1119.5C 966.497,1117.51 970.83,1116.51 975.5,1116.5 Z"/></g>
<g><path style="opacity:1" fill="#b6b6b6" d="M 975.5,1117.5 C 974.571,1118.31 973.571,1119.15 972.5,1120C 969.183,1120.5 965.85,1120.67 962.5,1120.5C 962.5,1120.17 962.5,1119.83 962.5,1119.5C 966.981,1119.57 971.314,1118.91 975.5,1117.5 Z"/></g>
<g><path style="opacity:1" fill="#454545" d="M 279.5,1120.5 C 279.205,1145.19 279.538,1169.86 280.5,1194.5C 279.168,1182.52 278.501,1170.19 278.5,1157.5C 278.5,1145 278.833,1132.66 279.5,1120.5 Z"/></g>
<g><path style="opacity:1" fill="#848484" d="M 962.5,1119.5 C 962.5,1119.83 962.5,1120.17 962.5,1120.5C 960.833,1120.5 959.167,1120.5 957.5,1120.5C 732.166,1120.33 506.833,1120.5 281.5,1121C 280.265,1145.44 280.265,1169.94 281.5,1194.5C 281.167,1194.5 280.833,1194.5 280.5,1194.5C 279.538,1169.86 279.205,1145.19 279.5,1120.5C 506.999,1119.5 734.666,1119.17 962.5,1119.5 Z"/></g>
<g><path style="opacity:1" fill="#dddddd" d="M 957.5,1120.5 C 732.667,1121.5 507.667,1121.83 282.5,1121.5C 282.5,1146.17 282.5,1170.83 282.5,1195.5C 282.167,1195.5 281.833,1195.5 281.5,1195.5C 281.5,1195.17 281.5,1194.83 281.5,1194.5C 280.265,1169.94 280.265,1145.44 281.5,1121C 506.833,1120.5 732.166,1120.33 957.5,1120.5 Z"/></g>
<g><path style="opacity:1" fill="#929292" d="M 1115.5,1190.5 C 1115.5,1191.5 1115.5,1192.5 1115.5,1193.5C 1114.59,1196.28 1113.59,1198.94 1112.5,1201.5C 1112.5,1199.5 1112.5,1197.5 1112.5,1195.5C 1113.93,1194.09 1114.93,1192.42 1115.5,1190.5 Z"/></g>
<g><path style="opacity:1" fill="#c3c3c3" d="M 281.5,1195.5 C 281.833,1195.5 282.167,1195.5 282.5,1195.5C 284.666,1198 285.666,1201 285.5,1204.5C 285.167,1204.5 284.833,1204.5 284.5,1204.5C 282.647,1201.79 281.647,1198.79 281.5,1195.5 Z"/></g>
<g><path style="opacity:1" fill="#a0a0a0" d="M 1112.5,1201.5 C 1112.71,1203.18 1112.05,1204.18 1110.5,1204.5C 1110.43,1202.97 1111.09,1201.97 1112.5,1201.5 Z"/></g>
<g><path style="opacity:1" fill="#2a2a2a" d="M 1115.5,1193.5 C 1115.83,1193.5 1116.17,1193.5 1116.5,1193.5C 1115.01,1197.28 1114.34,1201.28 1114.5,1205.5C 1113.5,1205.5 1112.5,1205.5 1111.5,1205.5C 1111.74,1206.79 1111.4,1207.79 1110.5,1208.5C 1110.5,1208.17 1110.5,1207.83 1110.5,1207.5C 1110.5,1206.5 1110.5,1205.5 1110.5,1204.5C 1112.05,1204.18 1112.71,1203.18 1112.5,1201.5C 1113.59,1198.94 1114.59,1196.28 1115.5,1193.5 Z"/></g>
<g><path style="opacity:1" fill="#9c9c9c" d="M 284.5,1204.5 C 284.833,1204.5 285.167,1204.5 285.5,1204.5C 288.13,1208.66 290.463,1212.99 292.5,1217.5C 292.167,1217.5 291.833,1217.5 291.5,1217.5C 287.9,1213.89 285.566,1209.55 284.5,1204.5 Z"/></g>
<g><path style="opacity:1" fill="#979797" d="M 1110.5,1207.5 C 1110.5,1207.83 1110.5,1208.17 1110.5,1208.5C 1109.09,1208.97 1108.43,1209.97 1108.5,1211.5C 1108.5,1212.17 1108.17,1212.5 1107.5,1212.5C 1106.92,1209.71 1107.92,1208.05 1110.5,1207.5 Z"/></g>
<g><path style="opacity:1" fill="#3d3d3d" d="M 1110.5,1208.5 C 1110.57,1210.03 1109.91,1211.03 1108.5,1211.5C 1108.43,1209.97 1109.09,1208.97 1110.5,1208.5 Z"/></g>
<g><path style="opacity:1" fill="#444444" d="M 1103.5,1218.5 C 1103.57,1220.03 1102.91,1221.03 1101.5,1221.5C 1101.43,1219.97 1102.09,1218.97 1103.5,1218.5 Z"/></g>
<g><path style="opacity:1" fill="#595959" d="M 291.5,1217.5 C 291.833,1217.5 292.167,1217.5 292.5,1217.5C 294.5,1219.83 296.5,1222.17 298.5,1224.5C 295.167,1223.17 292.833,1220.83 291.5,1217.5 Z"/></g>
<g><path style="opacity:1" fill="#999999" d="M 1107.5,1212.5 C 1106.17,1214.5 1104.83,1216.5 1103.5,1218.5C 1102.09,1218.97 1101.43,1219.97 1101.5,1221.5C 1098.57,1222.8 1096.23,1224.8 1094.5,1227.5C 1093.83,1227.83 1093.17,1228.17 1092.5,1228.5C 1097.13,1224.03 1101.29,1219.03 1105,1213.5C 1105.67,1212.75 1106.5,1212.41 1107.5,1212.5 Z"/></g>
<g><path style="opacity:1" fill="#8b8b8b" d="M 301.5,1226.5 C 304.4,1227.44 306.733,1229.11 308.5,1231.5C 306.628,1230.49 304.628,1229.66 302.5,1229C 301.748,1228.33 301.414,1227.5 301.5,1226.5 Z"/></g>
<g><path style="opacity:1" fill="#262626" d="M 1094.5,1227.5 C 1091.92,1231.38 1088.25,1233.71 1083.5,1234.5C 1083.5,1234.17 1083.5,1233.83 1083.5,1233.5C 1085.15,1232.07 1087.15,1231.24 1089.5,1231C 1090.38,1230.29 1091.05,1229.46 1091.5,1228.5C 1091.83,1228.5 1092.17,1228.5 1092.5,1228.5C 1093.17,1228.17 1093.83,1227.83 1094.5,1227.5 Z"/></g>
<g><path style="opacity:1" fill="#acacac" d="M 1091.5,1228.5 C 1091.05,1229.46 1090.38,1230.29 1089.5,1231C 1087.15,1231.24 1085.15,1232.07 1083.5,1233.5C 1082.83,1233.5 1082.17,1233.5 1081.5,1233.5C 1084.31,1230.95 1087.64,1229.28 1091.5,1228.5 Z"/></g>
<g><path style="opacity:1" fill="#636363" d="M 1081.5,1233.5 C 1082.17,1233.5 1082.83,1233.5 1083.5,1233.5C 1083.5,1233.83 1083.5,1234.17 1083.5,1234.5C 1080,1235.87 1076.33,1236.87 1072.5,1237.5C 1071.83,1237.5 1071.17,1237.5 1070.5,1237.5C 1070.5,1237.17 1070.5,1236.83 1070.5,1236.5C 1074.22,1235.7 1077.89,1234.7 1081.5,1233.5 Z"/></g>
<g><path style="opacity:1" fill="#b4b4b4" d="M 315.5,1233.5 C 321.294,1235.07 327.294,1235.9 333.5,1236C 579.166,1236.5 824.833,1236.67 1070.5,1236.5C 1070.5,1236.83 1070.5,1237.17 1070.5,1237.5C 822.846,1238.66 575.179,1238.83 327.5,1238C 323.085,1237.23 319.085,1235.73 315.5,1233.5 Z"/></g>
<g><path style="opacity:1" fill="#505050" d="M 309.5,1231.5 C 311.315,1232.63 313.315,1233.3 315.5,1233.5C 319.085,1235.73 323.085,1237.23 327.5,1238C 575.179,1238.83 822.846,1238.66 1070.5,1237.5C 1069.39,1238.29 1068.06,1238.79 1066.5,1239C 819.834,1239.5 573.167,1239.67 326.5,1239.5C 323.722,1238.03 320.722,1237.2 317.5,1237C 314.433,1235.61 311.767,1233.78 309.5,1231.5 Z"/></g>
<g><path style="opacity:1" fill="#101010" d="M 1070.5,1237.5 C 1071.17,1237.5 1071.83,1237.5 1072.5,1237.5C 1072.12,1238.93 1071.12,1239.76 1069.5,1240C 821.666,1240.83 574,1240.67 326.5,1239.5C 573.167,1239.67 819.834,1239.5 1066.5,1239C 1068.06,1238.79 1069.39,1238.29 1070.5,1237.5 Z"/></g>
<g><path style="opacity:0.004" fill="#000000" d="M 214.5,1266.5 C 215.833,1267.17 215.833,1267.17 214.5,1266.5 Z"/></g>
<g><path style="opacity:0.004" fill="#000000" d="M 1174.5,1274.5 C 1175.83,1275.17 1175.83,1275.17 1174.5,1274.5 Z"/></g>
<g><path style="opacity:0.004" fill="#000000" d="M 224.5,1279.5 C 225.833,1280.17 225.833,1280.17 224.5,1279.5 Z"/></g>
<g><path style="opacity:0.004" fill="#000000" d="M 227.5,1282.5 C 228.833,1283.17 228.833,1283.17 227.5,1282.5 Z"/></g>
<g><path style="opacity:0.004" fill="#000000" d="M 232.5,1287.5 C 233.833,1288.17 233.833,1288.17 232.5,1287.5 Z"/></g>
<g><path style="opacity:0.004" fill="#000000" d="M 237.5,1292.5 C 238.833,1293.17 238.833,1293.17 237.5,1292.5 Z"/></g>
<g><path style="opacity:0.004" fill="#000000" d="M 1153.5,1295.5 C 1154.83,1296.17 1154.83,1296.17 1153.5,1295.5 Z"/></g>
</svg>
